<?xml version="1.0" encoding="UTF-8" standalone="no"?>
<svg
   xmlns:dc="http://purl.org/dc/elements/1.1/"
   xmlns:cc="http://creativecommons.org/ns#"
   xmlns:rdf="http://www.w3.org/1999/02/22-rdf-syntax-ns#"
   xmlns:svg="http://www.w3.org/2000/svg"
   xmlns="http://www.w3.org/2000/svg"
   xmlns:xlink="http://www.w3.org/1999/xlink"
   xmlns:sodipodi="http://sodipodi.sourceforge.net/DTD/sodipodi-0.dtd"
   xmlns:inkscape="http://www.inkscape.org/namespaces/inkscape"
   id="Layer_1"
   data-name="Layer 1"
   viewBox="0 0 320.53002 328"
   version="1.1"
   sodipodi:docname="Bifrost_Logo_Round.svg"
   inkscape:version="1.0.2 (e86c870879, 2021-01-15)"
   width="472"
   height="472"
   inkscape:export-filename="/home/jtreed/bifrost.png"
   inkscape:export-xdpi="520.19"
   inkscape:export-ydpi="520.19">
  <metadata
     id="metadata983">
    <rdf:RDF>
      <cc:Work
         rdf:about="">
        <dc:format>image/svg+xml</dc:format>
        <dc:type
           rdf:resource="http://purl.org/dc/dcmitype/StillImage" />
        <dc:title></dc:title>
      </cc:Work>
    </rdf:RDF>
  </metadata>
  <sodipodi:namedview
     pagecolor="#ffffff"
     bordercolor="#666666"
     borderopacity="1"
     objecttolerance="10"
     gridtolerance="10"
     guidetolerance="10"
     inkscape:pageopacity="0"
     inkscape:pageshadow="2"
     inkscape:window-width="1920"
     inkscape:window-height="1062"
     id="namedview981"
     showgrid="false"
     inkscape:zoom="0.81274873"
     inkscape:cx="-89.186262"
     inkscape:cy="274.64684"
     inkscape:window-x="0"
     inkscape:window-y="18"
     inkscape:window-maximized="1"
     inkscape:current-layer="Layer_1" />
  <defs
     id="defs950">
    <style
       id="style927">.cls-1{fill:url(#linear-gradient);}.cls-2{fill:url(#linear-gradient-2);}.cls-3{fill:url(#linear-gradient-3);}.cls-4{fill:url(#linear-gradient-4);}.cls-5{fill:url(#linear-gradient-5);}.cls-6{fill:url(#linear-gradient-6);}.cls-7{fill:url(#linear-gradient-7);}.cls-8{fill:url(#linear-gradient-8);}.cls-9{fill:url(#linear-gradient-9);}.cls-10{fill:url(#linear-gradient-10);}.cls-11{fill:url(#linear-gradient-11);}.cls-12{fill:#fff;}</style>
    <linearGradient
       id="linear-gradient"
       x1="392.16"
       y1="415.92999"
       x2="136.21001"
       y2="159.97"
       gradientUnits="userSpaceOnUse">
      <stop
         offset="0"
         stop-color="#7f48ff"
         id="stop929" />
      <stop
         offset="0.18"
         stop-color="#8748ff"
         id="stop931" />
      <stop
         offset="0.44"
         stop-color="#9b48ff"
         id="stop933" />
      <stop
         offset="0.76"
         stop-color="#bd48ff"
         id="stop935" />
      <stop
         offset="1"
         stop-color="#db48ff"
         id="stop937" />
    </linearGradient>
    <linearGradient
       id="linear-gradient-2"
       x1="125.47"
       y1="254.92"
       x2="96.370003"
       y2="225.82001"
       xlink:href="#linear-gradient"
       gradientTransform="matrix(8.0131327,0,0,7.9361387,-728.63868,-1743.6095)" />
    <linearGradient
       id="linear-gradient-3"
       x1="230.14"
       y1="162.03"
       x2="202.98"
       y2="134.87"
       xlink:href="#linear-gradient" />
    <linearGradient
       id="linear-gradient-4"
       x1="270.16"
       y1="92.300003"
       x2="250.75999"
       y2="72.900002"
       xlink:href="#linear-gradient" />
    <linearGradient
       id="linear-gradient-5"
       x1="130.22"
       y1="147.17999"
       x2="110.82"
       y2="127.77"
       xlink:href="#linear-gradient" />
    <linearGradient
       id="linear-gradient-6"
       x1="69.860001"
       y1="221.25999"
       x2="50.459999"
       y2="201.86"
       xlink:href="#linear-gradient" />
    <linearGradient
       id="linear-gradient-7"
       x1="74.209999"
       y1="154.27"
       x2="62.57"
       y2="142.63"
       xlink:href="#linear-gradient" />
    <linearGradient
       id="linear-gradient-8"
       x1="98.900002"
       y1="99.389999"
       x2="87.260002"
       y2="87.75"
       xlink:href="#linear-gradient" />
    <linearGradient
       id="linear-gradient-9"
       x1="129.09"
       y1="28.049999"
       x2="117.45"
       y2="16.41"
       xlink:href="#linear-gradient" />
    <linearGradient
       id="linear-gradient-10"
       x1="203.17"
       y1="88.419998"
       x2="191.53"
       y2="76.779999"
       xlink:href="#linear-gradient" />
    <linearGradient
       id="linear-gradient-11"
       x1="222.38"
       y1="52.75"
       x2="210.74001"
       y2="41.110001"
       xlink:href="#linear-gradient" />
  </defs>
  <circle
     class="cls-2"
     cx="160.17796"
     cy="164"
     id="circle-lol"
     style="fill:url(#linear-gradient-2);stroke-width:7.97455"
     r="164" />
  <g
     id="g1001"
     transform="translate(-112.80526,-140.2057)">
    <path
       class="cls-12"
       d="m 241.76,220 h 72.06 a 59.13,59.13 0 0 1 21.2,6.36 c 5.29,2.76 15.05,7.85 21.19,19.07 1.47,2.69 9.93,18.86 2.12,36 -5.48,12.06 -15.75,17.48 -19.07,19.07 A 41.42,41.42 0 0 1 352,309 c 13.33,13.08 12.85,30.92 12.72,33.91 -0.88,20.32 -14.94,32.26 -16.95,33.91 a 47.68,47.68 0 0 1 -29.68,10.6 h -76.3 a 18.56,18.56 0 0 1 -17,-8.48 c -3.32,-5.3 -4.29,-13.17 0,-19.07 a 16.93,16.93 0 0 1 10.6,-6.36 h 31.79 A 16.37,16.37 0 0 0 263,321.71 h -48.8 a 18,18 0 0 1 -12.71,-14.84 c -1,-8.15 4.29,-16.28 12.71,-19.08 q 22.11,0.29 44.73,0.28 21.32,0 42.18,-0.28 c 7.84,-3.33 12.18,-11.49 10.59,-19.07 A 17,17 0 0 0 299,256 h -57.24 a 18.35,18.35 0 0 1 0,-36 z"
       id="path974" />
    <ellipse
       class="cls-12"
       cx="194.23"
       cy="369.76001"
       rx="15.99"
       ry="15.6"
       id="ellipse976" />
    <ellipse
       class="cls-12"
       cx="199.78999"
       cy="239.11"
       rx="15.99"
       ry="15.6"
       id="ellipse978" />
  </g>
</svg>
