<svg id="Layer_1" data-name="Layer 1" xmlns="http://www.w3.org/2000/svg" xmlns:xlink="http://www.w3.org/1999/xlink" viewBox="0 0 483 472"><defs><style>.cls-1{fill:url(#linear-gradient);}.cls-2{fill:url(#linear-gradient-2);}.cls-3{fill:url(#linear-gradient-3);}.cls-4{fill:url(#linear-gradient-4);}.cls-5{fill:url(#linear-gradient-5);}.cls-6{fill:url(#linear-gradient-6);}.cls-7{fill:url(#linear-gradient-7);}.cls-8{fill:url(#linear-gradient-8);}.cls-9{fill:url(#linear-gradient-9);}.cls-10{fill:url(#linear-gradient-10);}.cls-11{fill:url(#linear-gradient-11);}.cls-12{fill:#fff;}</style><linearGradient id="linear-gradient" x1="392.16" y1="415.93" x2="136.21" y2="159.97" gradientUnits="userSpaceOnUse"><stop offset="0" stop-color="#7f48ff"/><stop offset="0.18" stop-color="#8748ff"/><stop offset="0.44" stop-color="#9b48ff"/><stop offset="0.76" stop-color="#bd48ff"/><stop offset="1" stop-color="#db48ff"/></linearGradient><linearGradient id="linear-gradient-2" x1="125.47" y1="254.92" x2="96.37" y2="225.82" xlink:href="#linear-gradient"/><linearGradient id="linear-gradient-3" x1="230.14" y1="162.03" x2="202.98" y2="134.87" xlink:href="#linear-gradient"/><linearGradient id="linear-gradient-4" x1="270.16" y1="92.3" x2="250.76" y2="72.9" xlink:href="#linear-gradient"/><linearGradient id="linear-gradient-5" x1="130.22" y1="147.18" x2="110.82" y2="127.77" xlink:href="#linear-gradient"/><linearGradient id="linear-gradient-6" x1="69.86" y1="221.26" x2="50.46" y2="201.86" xlink:href="#linear-gradient"/><linearGradient id="linear-gradient-7" x1="74.21" y1="154.27" x2="62.57" y2="142.63" xlink:href="#linear-gradient"/><linearGradient id="linear-gradient-8" x1="98.9" y1="99.39" x2="87.26" y2="87.75" xlink:href="#linear-gradient"/><linearGradient id="linear-gradient-9" x1="129.09" y1="28.05" x2="117.45" y2="16.41" xlink:href="#linear-gradient"/><linearGradient id="linear-gradient-10" x1="203.17" y1="88.42" x2="191.53" y2="76.78" xlink:href="#linear-gradient"/><linearGradient id="linear-gradient-11" x1="222.38" y1="52.75" x2="210.74" y2="41.11" xlink:href="#linear-gradient"/></defs><path class="cls-1" d="M441.56,299.37c.76,90-76.05,164.4-164.64,164.63-80.05.2-151.06-60.06-164.63-142.68a25.46,25.46,0,0,1-22-13.72,24.71,24.71,0,0,1,0-22c5.07-10.08,17.3-15.83,30.18-13.72a31.21,31.21,0,0,0,13.72-54.88c-14-15-14.62-37.7-2.74-52.14,13.5-16.4,40.22-18.63,57.62-2.74,9.41,16.61,29.83,21.91,43.9,13.72,11.35-6.61,17.29-21.26,13.72-35.67-.05-17.58,14.86-29.46,27.44-27.44,9.87,1.58,18.6,11.78,19.21,24.7C377.67,147.7,440.87,218.45,441.56,299.37Z"/><circle class="cls-2" cx="110.92" cy="240.37" r="20.58"/><circle class="cls-3" cx="216.56" cy="148.45" r="19.21"/><circle class="cls-4" cx="260.46" cy="82.6" r="13.72"/><circle class="cls-5" cx="120.52" cy="137.48" r="13.72"/><circle class="cls-6" cx="60.16" cy="211.56" r="13.72"/><circle class="cls-7" cx="68.39" cy="148.45" r="8.23"/><circle class="cls-8" cx="93.08" cy="93.57" r="8.23"/><circle class="cls-9" cx="123.27" cy="22.23" r="8.23"/><circle class="cls-10" cx="197.35" cy="82.6" r="8.23"/><circle class="cls-11" cx="216.56" cy="46.93" r="8.23"/><path class="cls-12" d="M241.76,220h72.06a59.13,59.13,0,0,1,21.2,6.36c5.29,2.76,15.05,7.85,21.19,19.07,1.47,2.69,9.93,18.86,2.12,36-5.48,12.06-15.75,17.48-19.07,19.07A41.42,41.42,0,0,1,352,309c13.33,13.08,12.85,30.92,12.72,33.91-.88,20.32-14.94,32.26-16.95,33.91a47.68,47.68,0,0,1-29.68,10.6h-76.3a18.56,18.56,0,0,1-17-8.48c-3.32-5.3-4.29-13.17,0-19.07a16.93,16.93,0,0,1,10.6-6.36h31.79A16.37,16.37,0,0,0,263,321.71H214.2a18,18,0,0,1-12.71-14.84c-1-8.15,4.29-16.28,12.71-19.08q22.11.29,44.73.28,21.32,0,42.18-.28c7.84-3.33,12.18-11.49,10.59-19.07A17,17,0,0,0,299,256H241.76a18.35,18.35,0,0,1,0-36Z"/><ellipse class="cls-12" cx="194.23" cy="369.76" rx="15.99" ry="15.6"/><ellipse class="cls-12" cx="199.79" cy="239.11" rx="15.99" ry="15.6"/></svg>