<svg xmlns="http://www.w3.org/2000/svg" viewBox="0 0 1385.21 1427.81"><defs><style>.cls-1{fill:#202225;}</style></defs><g id="Layer_2" data-name="Layer 2"><g id="Layer_1-2" data-name="Layer 1"><path class="cls-1" d="M1385,48.13c-3.19-16.77-10.09-38.88-27-46-36.16-15.24-78.84,54.66-156,105-125.29,81.74-198.76,18.79-275,90-78.7,73.51-15.56,154.75-88,236-99.89,112-252.16,19.12-353,115-87.33,83-18.72,173.26-116,298-18.05,23.14-35.49,39.37-52.68,51.64-114,81.34-151,67.57-195.32,119.36-80.36,93.81-4,257.22-70,315-7.8,6.82-41.4,33-50,76a106.27,106.27,0,0,0-2,19.68H1385.21Q1385.12,738,1385,48.13Z"/></g></g></svg>