<svg id="Layer_1" data-name="Layer 1" xmlns="http://www.w3.org/2000/svg" xmlns:xlink="http://www.w3.org/1999/xlink" viewBox="0 0 483 472"><defs><style>.cls-1{fill:url(#linear-gradient);}.cls-2{fill:url(#linear-gradient-2);}.cls-3{fill:url(#linear-gradient-3);}</style><linearGradient id="linear-gradient" x1="73.64" y1="234.25" x2="461.34" y2="234.25" gradientUnits="userSpaceOnUse"><stop offset="0" stop-color="#de48ff"/><stop offset="0.46" stop-color="#b448ff"/><stop offset="1" stop-color="#7f48ff"/></linearGradient><linearGradient id="linear-gradient-2" x1="18.73" y1="391.02" x2="94.62" y2="391.02" xlink:href="#linear-gradient"/><linearGradient id="linear-gradient-3" x1="31.92" y1="80.94" x2="107.81" y2="80.94" xlink:href="#linear-gradient"/></defs><path class="cls-1" d="M169.48,35.5h171a140.81,140.81,0,0,1,50.3,15.09c12.56,6.56,35.72,18.64,50.31,45.28,3.49,6.37,23.56,44.76,5,85.52-13,28.62-37.39,41.5-45.28,45.27a98.72,98.72,0,0,1,30.19,20.12c31.63,31,30.49,73.38,30.18,80.49-2.1,48.22-35.46,76.56-40.25,80.49-28.93,23.75-60.87,25.1-70.42,25.15H169.48c-16.32,1-31.83-6.67-40.24-20.12-7.88-12.59-10.19-31.27,0-45.28,8.5-11.7,21.59-14.46,25.15-15.09h75.46c18.76-7.26,29.26-26.89,25.15-45.27C251.39,291,237.15,278.64,219.79,277H104.08c-16.4-5.17-28.29-19.06-30.18-35.22-2.26-19.35,10.18-38.65,30.18-45.27q52.49.68,106.15.66,50.6,0,100.1-.66c18.63-7.91,28.92-27.27,25.16-45.28-3-14.55-14.87-26.32-30.19-30.18H169.48c-21.53-4.66-36.41-24.2-35.21-45.27C135.37,56.4,149.79,39.69,169.48,35.5Z"/><ellipse class="cls-2" cx="56.67" cy="391.02" rx="37.94" ry="37.03"/><ellipse class="cls-3" cx="69.87" cy="80.94" rx="37.94" ry="37.03"/></svg>