<svg xmlns="http://www.w3.org/2000/svg" viewBox="0 0 441.7 424.17"><defs><style>.cls-1{fill:#732df8;}.cls-2{fill:#f7ceaf;}.cls-3{fill:#3a72b8;}.cls-4{fill:#f8cfb0;}.cls-5{fill:#eec4ab;}.cls-6{fill:#f4ccac;}.cls-7{fill:#ffedb4;}.cls-8{fill:#d2b09c;}.cls-9{fill:#fff46a;}.cls-10{fill:#fff;}.cls-11{fill:#85b2dc;}.cls-12{fill:#373737;}.cls-13{fill:#fefefd;}.cls-14{fill:#7f48ff;}.cls-15{fill:#d9dcd7;}.cls-16{fill:#8e7c6b;}.cls-17{fill:#cdcdcb;}.cls-18{fill:#e7e7e5;}.cls-19{fill:#c5c5c3;}.cls-20{fill:#e54f9c;}.cls-21{fill:#d04b96;}.cls-22{fill:#8cc63f;}</style></defs><g id="Layer_2" data-name="Layer 2"><g id="Layer_1-2" data-name="Layer 1"><path class="cls-1" d="M328,127.91c13.95,1.28,29.27,2.08,45.79,2a480.47,480.47,0,0,0,52-3,115,115,0,0,0-2.09-43.46c-3.14-12.84-5.94-24.26-14.56-31.32-14.59-11.93-42.18-8.41-68.69,7.07a67.93,67.93,0,0,0-6.24,9.1C321.12,91.23,325.08,116,328,127.91Z"/><rect class="cls-2" x="84.91" y="386.75" width="11.86" height="24.27"/><rect class="cls-2" x="47.36" y="386.75" width="11.86" height="24.27"/><path class="cls-3" d="M37.47,268.45c-.19,2.49-.37,9.24,4,15.17a19.77,19.77,0,0,0,4,4V387.77H61.19V289.69H82.94v98.08H98.75V275.53a23.17,23.17,0,0,0-4-6.07C78.8,251.92,40.19,267.33,37.47,268.45Z"/><path class="cls-4" d="M134.33,174.42a99.58,99.58,0,0,1-5.06,22,95.72,95.72,0,0,1-3.84,9.3,100.75,100.75,0,0,1-5.93-10.11,103,103,0,0,1-5.93-14.15l4-3a48.64,48.64,0,0,0-8.9-24.26C96.41,137.39,77.34,135.29,74,135V121.84l-12.85-1L60.2,135c-3.89.45-23.18,3.1-35.58,20.23a50.41,50.41,0,0,0-8.89,22.24C10.19,188.63,6,198.25,2.88,205.76c-2.21,5.36-4,10.13-2,14.16,1.19,2.29,3.58,4.22,10.88,6.07a64.75,64.75,0,0,0,22.71,1.76L33.21,214.8c-6.18-.11-12.67-.41-19.46-1,2.64-4.75,5.29-9.8,7.91-15.17,2.54-5.21,4.84-10.28,6.92-15.16l4.94,2,67.21-1a67.32,67.32,0,0,0,9.88,23.25c4.46,6.63,9,13.09,13.84,13.15,12.07.15,20.84-39.3,21.74-43.48Z"/><ellipse class="cls-5" cx="106.66" cy="88.47" rx="9.88" ry="10.11"/><ellipse class="cls-6" cx="31.54" cy="81.39" rx="9.88" ry="10.11"/><ellipse class="cls-4" cx="70.09" cy="86.45" rx="38.54" ry="39.43"/><path class="cls-4" d="M108.63,68.25c-.78,17.1-15.85,37.41-38,37.41-22,0-36.67-19.91-38-37.41-.14-1.76-1.18-18.28,9.88-28.31a29.21,29.21,0,0,1,10.88-6.07c9.44-3.13,17.57-1.12,25.69,1C89.36,37.6,95.43,39.19,100.73,45,109.1,54.17,108.72,66.39,108.63,68.25Z"/><path class="cls-7" d="M39.45,43a43.36,43.36,0,0,0-4.94,8.09,30.44,30.44,0,0,0-3,9.1,28.4,28.4,0,0,0,2,15.17l3.95,3a54.47,54.47,0,0,1,3-13.14,53.49,53.49,0,0,1,6.92-13.15Z"/><path class="cls-8" d="M32.53,75.33a42.29,42.29,0,0,0-1,12.13,42.77,42.77,0,0,0,6.73,20.22,39.4,39.4,0,0,0,13.44,13.15c14.95,8.63,30.35,3.35,31.23,3,16.34-5.91,22-21.2,22.73-23.25a45.86,45.86,0,0,1-9.89,0c-8.67-1-9.35-3.75-15.81-4-6.79-.32-7.72,2.29-18.78,3a55.82,55.82,0,0,1-7.9,0c-2.06-.14-5.52-.28-7.34-1-7.78-3.1-8.58-17.85-8.64-19.21Z"/><ellipse cx="60.7" cy="86.95" rx="4.45" ry="4.55"/><ellipse cx="94.3" cy="87.97" rx="4.45" ry="4.55"/><path class="cls-7" d="M98.75,54.09a26.29,26.29,0,0,1,5.66,8.09,34.84,34.84,0,0,1,2.25,8.09,58.47,58.47,0,0,1,1,8.09h1c.41-2.52,1.51-10.1.38-16.18-.31-1.68-.79-3.55-.79-3.55a55.17,55.17,0,0,0-2.55-7.57Z"/><path class="cls-9" d="M40.44,43a12.93,12.93,0,0,1,0-8.09c2.11-6.14,8.3-7.93,8.89-8.09-.64,3.73-.28,6.56,1,7.08a1.43,1.43,0,0,0,1,0,13.16,13.16,0,0,1,1-4c6.22-14.74,38.07-12.35,40.52-12.14A34.3,34.3,0,0,0,79,25.78c-.34.34-.67.67-1,1a42.51,42.51,0,0,1,20.76-5.05,41.78,41.78,0,0,1,14.82,3,54.55,54.55,0,0,0-11.86,8.09,53.93,53.93,0,0,0-4.94,5.06,74.56,74.56,0,0,0,11.86-4.05,74.31,74.31,0,0,0,7.91-4A34.66,34.66,0,0,1,111.6,44a33.73,33.73,0,0,1-5.93,7.08c-2.08,1.78-8.3,6.42-30.64,5.06a152.77,152.77,0,0,1-26.69-4Z"/><path class="cls-10" d="M64.49,102.25c1.18,5.59,6.72,9.87,13.44,10s12.37-4,13.7-9.58Z"/><path class="cls-10" d="M56.25,135a13.08,13.08,0,0,0,1,7.08c.26.58,2.85,6.06,8.89,7.08.45.07,6.93,1.05,10.88-4A12.27,12.27,0,0,0,79,135a37.62,37.62,0,0,1,10.87,2c13,4.47,19.74,14.81,21.75,18.2a44.78,44.78,0,0,1,5.93,26.29l-15.82,5.05v89l-67.2,1-1-90-18.78-8.09a53.7,53.7,0,0,1,13.84-28.31A51.51,51.51,0,0,1,56.25,135Z"/><rect class="cls-11" x="43.4" y="386.75" width="19.77" height="7.08"/><rect class="cls-11" x="80.96" y="386.75" width="19.77" height="7.08"/><path class="cls-12" d="M44.39,420.12q2-7.08,4-14.15a5.67,5.67,0,0,1,10.88,0q2,7.06,4,14.15Z"/><path class="cls-12" d="M80,420.12q2-6.57,4-13.14l9.89-2a6.76,6.76,0,0,1,1-4,6.85,6.85,0,0,1,4.94-3V405l16.8,10.12,1,5.05Z"/><rect class="cls-13" x="44.39" y="420.12" width="18.78" height="4.04"/><rect class="cls-13" x="79.97" y="420.12" width="37.56" height="4.04"/><path class="cls-14" d="M127.93,172.71l-18.35-5c-1.35-.36-1.91-1.89-1.25-3.42L121.24,134a3.4,3.4,0,0,1,3.64-2.18l18.34,4.79c1.35.35,1.92,1.91,1.26,3.46l-12.92,30.49A3.31,3.31,0,0,1,127.93,172.71Z"/><path class="cls-4" d="M131.36,160.26c3.08,2.39,3,7.06,3,13.15a43.4,43.4,0,0,1-.37,5.18h11.88a42.56,42.56,0,0,0-.64-14.28c-1.16-5.24-2.53-11.42-7.91-15.17-7.69-5.38-17.5-1.53-18.77-1v13.14C123.19,158.61,128.3,157.89,131.36,160.26Z"/><path class="cls-15" d="M128.66,138.56l-4-1a1.58,1.58,0,0,1-1.14-1.91l0-.18a1.56,1.56,0,0,1,1.87-1.16l4,1a1.58,1.58,0,0,1,1.13,1.91l0,.18A1.53,1.53,0,0,1,128.66,138.56Z"/><ellipse cx="125.43" cy="135.99" rx="0.99" ry="1.01"/><path class="cls-16" d="M43.4,204.75l3,26.29a15.65,15.65,0,0,0,8.89,3,15.46,15.46,0,0,0,7.91-2q2-13.65,4-27.3Z"/><path class="cls-4" d="M28.56,227.75c3.77-.16,8-.44,12.87-.75,2.4-.16,8.09-.53,15.81-1l2-12.14c-8,.63-16.56,1-25.7,1q-3.06,0-6.24-.06"/><path class="cls-17" d="M42.41,200.71v8.09a44.82,44.82,0,0,0,25.7-2v-6.06a33.11,33.11,0,0,0-6.92-2A35,35,0,0,0,42.41,200.71Z"/><ellipse class="cls-18" cx="55.26" cy="200.71" rx="12.85" ry="3.03"/><path class="cls-19" d="M60.51,199.48a12.42,12.42,0,0,0-3.87,3c5.8-.41,9.49-1,9.49-1.69C66.13,200.32,64,199.86,60.51,199.48Z"/><rect class="cls-2" x="344.93" y="385.74" width="11.86" height="24.27" transform="translate(701.71 795.75) rotate(180)"/><rect class="cls-2" x="382.48" y="385.74" width="11.86" height="24.27" transform="translate(776.82 795.75) rotate(180)"/><path class="cls-3" d="M404.23,267.44c.19,2.49.37,9.24-4,15.17a19.77,19.77,0,0,1-3.95,4v100.1H380.51V288.68H358.76v98.07H343V274.52a23.17,23.17,0,0,1,3.95-6.07C362.9,250.91,401.5,266.32,404.23,267.44Z"/><path class="cls-4" d="M307.37,173.41a99.5,99.5,0,0,0,5.05,22c1.2,3.38,2.51,6.48,3.84,9.3a101.19,101.19,0,0,0,11.86-24.27l-3.95-3a48.5,48.5,0,0,1,8.9-24.27c12.22-16.8,31.28-18.9,34.59-19.21V120.83l12.85-1q.48,7.08,1,14.15c3.9.45,23.19,3.1,35.58,20.23a50.45,50.45,0,0,1,8.9,22.24c5.54,11.18,9.75,20.8,12.85,28.31,2.2,5.36,4,10.13,2,14.16-1.18,2.29-3.57,4.22-10.87,6.06a64.29,64.29,0,0,1-22.71,1.76l1.28-12.94c6.18-.12,12.67-.42,19.45-.95-2.63-4.75-5.29-9.8-7.9-15.17-2.55-5.21-4.84-10.28-6.92-15.16l-4.94,2-67.21-1a67.52,67.52,0,0,1-9.88,23.25c-4.47,6.63-9,13.09-13.84,13.15-12.07.15-20.84-39.3-21.74-43.48Z"/><ellipse class="cls-6" cx="410.15" cy="80.38" rx="9.88" ry="10.11"/><ellipse class="cls-4" cx="371.61" cy="85.44" rx="38.54" ry="39.43"/><path class="cls-4" d="M333.07,67.24c.78,17.1,15.85,37.41,38.05,37.41,22,0,36.67-19.91,38.05-37.41.14-1.76,1.18-18.28-9.89-28.31a29.18,29.18,0,0,0-10.87-6.07c-9.44-3.13-17.57-1.12-25.69,1C352.34,36.59,346.27,38.18,341,44,332.6,53.16,333,65.38,333.07,67.24Z"/><ellipse cx="381" cy="85.94" rx="4.45" ry="4.55"/><ellipse cx="347.4" cy="86.95" rx="4.45" ry="4.55"/><path class="cls-10" d="M377.21,101.24c-1.18,5.59-6.72,9.87-13.44,10s-12.37-4-13.7-9.58Z"/><path class="cls-10" d="M385.45,134a13.09,13.09,0,0,1-1,7.08c-.26.58-2.85,6-8.9,7.08-.44.07-6.92,1.05-10.87-4a12.27,12.27,0,0,1-2-10.11,38,38,0,0,0-10.88,2c-13,4.48-19.74,14.82-21.74,18.21a44.76,44.76,0,0,0-5.93,26.28L340,185.54v89l67.21,1,1-90L427,177.45a53.66,53.66,0,0,0-13.84-28.31A51.54,51.54,0,0,0,385.45,134Z"/><rect class="cls-11" x="378.53" y="385.74" width="19.77" height="7.08" transform="translate(776.82 778.56) rotate(180)"/><rect class="cls-11" x="340.97" y="385.74" width="19.77" height="7.08" transform="translate(701.71 778.56) rotate(180)"/><path class="cls-12" d="M397.31,419.11l-4-14.16a5.67,5.67,0,0,0-10.87,0q-2,7.08-4,14.16Z"/><path class="cls-12" d="M361.73,419.11l-4-13.14-9.88-2a6.56,6.56,0,0,0-5.93-7.07v7.07l-16.8,10.12-1,5.05Z"/><rect class="cls-13" x="378.53" y="419.11" width="18.78" height="4.04" transform="translate(775.84 842.27) rotate(180)"/><rect class="cls-13" x="324.17" y="419.11" width="37.56" height="4.04" transform="translate(685.9 842.27) rotate(180)"/><path class="cls-14" d="M338.91,45a109.18,109.18,0,0,0-12.85,51.57L366.58,43Z"/><path class="cls-14" d="M389.32,60.16a245.88,245.88,0,0,1,12.84,59.66h7.91V60.16Z"/><path class="cls-20" d="M335,51.06c4-12.53,9.91-19.34,14.62-23.26,5.9-4.9,10.49-5.73,17-13.14,5.32-6.05,4.62-8.18,8.87-11.12,8.84-6.11,20-2.57,21.77-2,2,.65,11,3.49,13.1,10.12,0,.14.23,1.12.61,3.07,1.21,6.28,2.08,11,2.11,11.08,1.28,6.91,2.83,11.19,4,16.18a87.41,87.41,0,0,1,2.25,23.26Z"/><path class="cls-21" d="M425.79,77.53,328.27,60.12,334,43l87.55,14.24Z"/><path class="cls-14" d="M316.7,130.84l-18.35,4.59c-1.35.34-1.91,1.85-1.25,3.38L310,169a3.44,3.44,0,0,0,3.64,2.2L332,166.71c1.35-.33,1.92-1.85,1.26-3.4L320.33,133A3.38,3.38,0,0,0,316.7,130.84Z"/><path class="cls-15" d="M313,137.55l4-1a1.58,1.58,0,0,0,1.14-1.91l-.05-.18a1.54,1.54,0,0,0-1.86-1.16l-4,1a1.59,1.59,0,0,0-1.14,1.91l.05.18A1.53,1.53,0,0,0,313,137.55Z"/><ellipse cx="316.26" cy="134.98" rx="0.99" ry="1.01"/><path class="cls-4" d="M310.33,159.25c-3.07,2.38-3,7.06-3,13.15a43.4,43.4,0,0,0,.37,5.18H295.85a42.78,42.78,0,0,1,.65-14.28c1.16-5.24,2.53-11.42,7.9-15.17,7.7-5.38,17.51-1.53,18.78-1v13.14C318.5,157.6,313.4,156.88,310.33,159.25Z"/><path class="cls-22" d="M387.17,222.73a22.88,22.88,0,0,1-13.3,2l-1.55-18.28-1.55-18.29,13.45,12.14,13.46,12.14A23.78,23.78,0,0,1,387.17,222.73Z"/><path class="cls-20" d="M385.47,219.35a20.78,20.78,0,0,1-12.1,1.85L372,204.58,370.55,188l12.23,11L395,210A21.55,21.55,0,0,1,385.47,219.35Z"/><path class="cls-12" d="M374.3,197.07c0,.37.12,4.44,1.48,4.72a1.29,1.29,0,0,0,1.3-.82C377.47,200,376.47,198.36,374.3,197.07Z"/><path class="cls-12" d="M382.55,203.3c0,.38.11,4.45,1.47,4.73a1.31,1.31,0,0,0,1.3-.82C385.72,206.23,384.71,204.59,382.55,203.3Z"/><path class="cls-12" d="M377.31,210.77c0,.38.11,4.45,1.47,4.73a1.32,1.32,0,0,0,1.3-.82C380.47,213.7,379.47,212.06,377.31,210.77Z"/><path class="cls-4" d="M413.14,226.73c-3.77-.15-8-.43-12.87-.74l-15.81-1-2-12.13c8,.63,16.56,1,25.7,1q3.06,0,6.24-.06"/></g></g></svg>