<?xml version="1.0" encoding="UTF-8" standalone="no"?>
<svg
   xmlns:dc="http://purl.org/dc/elements/1.1/"
   xmlns:cc="http://creativecommons.org/ns#"
   xmlns:rdf="http://www.w3.org/1999/02/22-rdf-syntax-ns#"
   xmlns:svg="http://www.w3.org/2000/svg"
   xmlns="http://www.w3.org/2000/svg"
   xmlns:sodipodi="http://sodipodi.sourceforge.net/DTD/sodipodi-0.dtd"
   xmlns:inkscape="http://www.inkscape.org/namespaces/inkscape"
   viewBox="0 0 381.66166 381.66166"
   version="1.1"
   id="svg2867"
   sodipodi:docname="Cat_Broken_Icon.svg"
   inkscape:version="1.0.2 (e86c870879, 2021-01-15)"
   width="381.66165"
   height="381.66165">
  <metadata
     id="metadata2871">
    <rdf:RDF>
      <cc:Work
         rdf:about="">
        <dc:format>image/svg+xml</dc:format>
        <dc:type
           rdf:resource="http://purl.org/dc/dcmitype/StillImage" />
        <dc:title />
      </cc:Work>
    </rdf:RDF>
  </metadata>
  <sodipodi:namedview
     pagecolor="#ffffff"
     bordercolor="#666666"
     borderopacity="1"
     objecttolerance="10"
     gridtolerance="10"
     guidetolerance="10"
     inkscape:pageopacity="0"
     inkscape:pageshadow="2"
     inkscape:window-width="1920"
     inkscape:window-height="1080"
     id="namedview2869"
     showgrid="false"
     inkscape:zoom="1.6375506"
     inkscape:cx="325.4728"
     inkscape:cy="251.94662"
     inkscape:window-x="0"
     inkscape:window-y="0"
     inkscape:window-maximized="1"
     inkscape:current-layer="svg2867"
     inkscape:document-rotation="0" />
  <defs
     id="defs2705">
    <style
       id="style2703">.cls-1{fill:#40444b;}.cls-2{fill:#666;}.cls-2,.cls-4,.cls-5,.cls-6,.cls-7,.cls-8{stroke:#000;stroke-miterlimit:10;stroke-width:3px;}.cls-3,.cls-5{fill:#4d4d4d;}.cls-4{fill:#999;}.cls-6{fill:gray;}.cls-7{fill:none;}.cls-8{fill:#ccc;}</style>
  </defs>
  <circle
     class="cls-1"
     r="190.83083"
     id="path2707"
     sodipodi:nodetypes="cccc"
     cx="190.83083"
     cy="190.83083"
     style="stroke-width:1.90831" />
  <path
     class="cls-2"
     d="m 217.3806,178.67108 c 5.13,-15.6 18.36,-52.24 21.2,-52.7 3.43,-0.56 18,37.35 23,53.31"
     id="path2719" />
  <path
     class="cls-2"
     d="m 256.9406,324.52108 h -140.37 a 33.45,33.45 0 0 1 -33.260002,-33.64 v -78.27 a 34.81,34.81 0 0 1 9.74,-23.78 33.89,33.89 0 0 1 22.430002,-9.92 v 7.11 q 0.56,-3.53 1.09,-7 c 3.3,-11.61 7.2,-25.49 11.56,-41.26 2.47,-9 3.42,-12.46 5.64,-12.79 1.6,-0.24 5.64,0.87 28.07,54.35 1.19,2.83 2.16,5.17 2.81,6.74 l -2.81,-7.11 95.14,0.07 c 2.87,0.08 14.51,0.74 23.52,9.85 a 34.59,34.59 0 0 1 8.24,13.78 34,34 0 0 1 1.5,10 v 78.27 a 33.45,33.45 0 0 1 -33.3,33.6 z"
     id="path2721" />
  <ellipse
     class="cls-4"
     cx="248.43059"
     cy="296.1311"
     rx="21.5"
     ry="21.440001"
     id="ellipse2723" />
  <ellipse
     cx="168.11061"
     cy="242.39108"
     rx="10.15"
     ry="10.27"
     id="ellipse2725" />
  <ellipse
     cx="266.65057"
     cy="241.78108"
     rx="10.15"
     ry="10.27"
     id="ellipse2727" />
  <path
     class="cls-4"
     d="m 274.0606,309.28108 c -13.31,1.36 -23.77,-10.42 -25.35,-12.26 -1.49,1.49 -14.14,13.82 -27.29,12.26 -2.5,-0.29 -7.34,-0.87 -11.06,-4.63 a 17,17 0 0 1 -3.88,-6.48 16.14,16.14 0 0 1 -0.7,-4.7 v -18.79 a 15.73,15.73 0 0 1 15.64,-15.81 h 52.64 a 15.73,15.73 0 0 1 15.64,15.81 v 18.79 a 16.92,16.92 0 0 1 -4.58,11.18 c -3.85,3.9 -8.6,4.38 -11.06,4.63 z"
     id="path2729" />
  <ellipse
     class="cls-2"
     cx="248.73061"
     cy="271.37109"
     rx="12.24"
     ry="8.1499996"
     id="ellipse2731" />
  <path
     class="cls-3"
     d="m 116.3906,307.94108 a 41.73,41.73 0 0 1 -5.79,-16.62 c -1.69,-15.39 -0.69,-31.53 -0.81,-47 -0.1,-13.46 -0.39,-27.24 0.94,-40.65 a 34.36,34.36 0 0 1 1.44,-7.14 v -15.53 a 32.5,32.5 0 0 0 -26.890002,32.13 v 75.92 a 33,33 0 0 0 8.14,23.21 c 9.230002,10.33 21.630002,10.72 23.670002,10.75 h 14 a 46,46 0 0 1 -14.7,-15.07 z"
     id="path2733" />
  <path
     class="cls-3"
     d="m 217.8506,302.90108 a 13.43,13.43 0 0 1 -1.91,-5.53 v -26.83 a 8.1,8.1 0 0 1 0,-4.26 c 1.14,-4 5.16,-5.52 5.62,-5.69 a 11.63,11.63 0 0 0 -7,1.42 14.17,14.17 0 0 0 -4.22,4.27 23.19,23.19 0 0 0 -2.81,5.07 v 25.26 a 18.74,18.74 0 0 0 4.22,6.6 18.45,18.45 0 0 0 6.52,4.26 h 4.42 a 13.16,13.16 0 0 1 -4.84,-4.57 z"
     id="path2735" />
  <polygon
     class="cls-3"
     points="337.64,149.78 343.6,164.33 349.56,178.87 338.83,179.31 328.1,179.75 332.87,164.77 "
     id="polygon2737"
     transform="translate(-200.0594,-0.52891541)" />
  <polygon
     class="cls-3"
     points="441.66,147.62 446.85,162.46 452.04,177.29 441.3,177.17 430.56,177.05 436.11,162.34 "
     id="polygon2739"
     transform="translate(-200.0594,-0.52891541)" />
  <path
     class="cls-3"
     d="m 223.5606,210.09108 q -5.6,-7.4 -11.83,-15.06 -6,-7.31 -11.83,-14 h 20.43 a 47.62,47.62 0 0 1 3.23,29 z"
     id="path2741" />
  <path
     class="cls-6"
     d="m 275.1806,284.83108 h 32.27"
     id="path2749" />
  <path
     class="cls-6"
     d="m 273.5206,274.81108 31.28,-7.92"
     id="path2751" />
  <path
     class="cls-6"
     d="m 273.5206,274.81108 31.28,-7.92"
     id="path2753" />
  <path
     class="cls-6"
     d="m 272.4506,294.85108 31.28,7.92"
     id="path2755" />
  <path
     class="cls-6"
     d="m 272.4506,294.85108 31.28,7.92"
     id="path2757" />
  <path
     class="cls-6"
     d="m 222.4806,284.83108 h -32.26"
     id="path2759" />
  <path
     class="cls-6"
     d="m 224.1406,274.81108 -31.28,-7.92"
     id="path2761" />
  <path
     class="cls-6"
     d="m 224.1406,274.81108 -31.28,-7.92"
     id="path2763" />
  <path
     class="cls-6"
     d="m 225.2206,294.85108 -31.28,7.92"
     id="path2765" />
  <path
     class="cls-6"
     d="m 225.2206,294.85108 -31.28,7.92"
     id="path2767" />
  <path
     class="cls-7"
     d="m 146.9406,227.56108 a 18.29,18.29 0 0 0 16,-15"
     id="path2777" />
  <path
     class="cls-7"
     d="m 281.9406,226.56108 a 18.29,18.29 0 0 1 -16,-15"
     id="path2779" />
  <path
     class="cls-4"
     d="m 176.9406,60.121085 10.64,-7.28 c -0.45,-0.18 -7.09,-3.06 -7.84,-8.95 -0.92,-7.28 8.05,-11.86 9,-12.32 5.58,-2.85 15.08,-3.83 20.16,2.24 5.22,6.25 2.49,16.1 -1.68,20.71 -1.81,2 -4.56,3.71 -10.06,7.13 a 28.23,28.23 0 0 0 -7.22,5.66 26.81,26.81 0 0 0 -2.88,4 36.91,36.91 0 0 0 -3.92,9 37.43,37.43 0 0 0 -1.2,14.52 l 15.68,-1.12 c -1,-5.06 -1.52,-12.26 2.24,-18.47 2.77,-4.58 5.72,-5.08 10.64,-9.52 2.78,-2.52 13.75,-12.43 13.43,-25.19 -0.22,-9.06 -6.1,-18.55 -14.55,-22.4 -16.67,-7.59 -40.93,7.9 -41.43,24.08 -0.27,8.59 6.22,15.35 8.99,17.91 z"
     id="path2801" />
  <circle
     class="cls-4"
     cx="189.78059"
     cy="109.95109"
     r="9.5200005"
     id="circle2803" />
  <path
     class="cls-4"
     d="m 254.0506,64.051085 8.2,-1.25 c -0.21,-0.24 -3.26,-3.75 -2.05,-7.38 1.5,-4.47 8,-4.62 8.63,-4.63 4,-0.1 9.8,2 11.05,6.91 1.28,5.08 -3.05,10 -6.75,11.53 -1.61,0.66 -3.68,0.88 -7.82,1.33 a 18.29,18.29 0 0 0 -5.75,1.26 17.57,17.57 0 0 0 -2.79,1.52 23.44,23.44 0 0 0 -9.47,12.22 l 9.39,3.72 c 0.83,-3.21 2.54,-7.53 6.45,-10.08 2.88,-1.88 4.73,-1.34 8.81,-2.54 2.32,-0.69 11.44,-3.37 14.81,-10.85 a 16.89,16.89 0 0 0 -2.19,-17 c -7.54,-9.05 -25.91,-6.84 -30.71,2.39 -2.55,4.87 -0.68,10.6 0.19,12.85 z"
     id="path2805" />
  <circle
     class="cls-4"
     cx="247.62059"
     cy="96.501083"
     r="6.1199999"
     id="circle2807" />
  <path
     class="cls-4"
     d="m 114.9406,75.271085 c 1.08,-2.54 2.15,-5.09 3.22,-7.63 -0.31,0 -4.89,0.81 -7.35,-2.12 -3,-3.61 0.23,-9.21 0.56,-9.77 2,-3.48 6.82,-7.32 11.67,-5.8 5,1.56 7,7.83 6.3,11.78 -0.28,1.71 -1.17,3.59 -3,7.35 a 18.31,18.31 0 0 0 -1.93,5.57 17.12,17.12 0 0 0 -0.16,3.17 23.29,23.29 0 0 0 1,6.21 24.24,24.24 0 0 0 4.46,8.26 l 8.09,-6.06 c -2.3,-2.39 -5.09,-6.11 -5.22,-10.77 -0.09,-3.44 1.33,-4.73 2.44,-8.84 0.63,-2.34 3.12,-11.51 -1.5,-18.3 a 16.86,16.86 0 0 0 -15.66,-7 c -11.65,1.69 -19.370002,18.5 -14,27.42 2.88,4.73 8.75,6.1 11.08,6.53 z"
     id="path2809" />
  <circle
     class="cls-4"
     cx="139.27058"
     cy="97.731087"
     r="6.1199999"
     id="circle2811" />
</svg>
