<svg xmlns="http://www.w3.org/2000/svg" viewBox="0 0 947.2 392.5"><defs><style>.cls-1{fill:#40444b;}.cls-2,.cls-7{fill:#4d4d4d;}.cls-2,.cls-4,.cls-5,.cls-6{stroke:#000;stroke-miterlimit:10;stroke-width:3px;}.cls-3,.cls-4{fill:#666;}.cls-5,.cls-8{fill:gray;}.cls-6{fill:#b3b3b3;}</style></defs><g id="Layer_2" data-name="Layer 2"><g id="Cat"><path class="cls-1" d="M250.9,21.37H633c27.73-2.8,51.07,18.33,51.79,42.58.61,20.59-15.17,40.38-38,44.89H619.19c-24.15,3.89-42.08,24.5-42.58,48.34-.53,25,18.27,47.11,43.73,50.63L892,212.42c29.28-3.18,54.7,19.68,55.24,47.18.52,26.13-21.55,49.26-49.48,49.49H870.08c-2.65,1.12-18,7.87-23,24.17a36.19,36.19,0,0,0-1.16,16.11,36.18,36.18,0,0,1-2.3,19.57c-8.35,19.55-31.87,22.83-33.37,23H248.6c-5.16.67-26.92,2.93-47.19-11.51-25.66-18.29-27.46-48.06-27.62-51.79V299.89a37.57,37.57,0,0,0-1.15-20.72c-7.13-19.81-29.27-24.93-31.07-25.32l-58.7-1.15C36.64,252.6-.6,214.42,0,169.84c.57-42.53,35.4-78.66,79.41-80.57H185.3c.69.15,15.2,3,25.32-8a26.91,26.91,0,0,0,5.76-26.47A33.4,33.4,0,0,1,250.9,21.37Z"/><ellipse class="cls-2" cx="144.36" cy="172" rx="77" ry="54"/><path class="cls-3" d="M73.86,156.5c19.7,12.94,32.06,12.9,39.82,10.2,7-2.43,8.23-6.26,15.86-7.56,13-2.21,17.17,7.94,31,7.56,10.57-.3,10.3-6.33,25.68-9.82,4.11-.94,24.76-5.63,31,3.77,1,1.46,3.35,5.95,0,15.11A60.73,60.73,0,0,0,189.2,175c-13.68,3-16,9-27.19,9.06-12.65.05-15.62-7.65-27.18-6-8.75,1.22-11.19,6.18-18.13,9.07-8.17,3.39-21.9,3.63-45.84-12.59Z"/><path class="cls-3" d="M97.86,200.5c12.37,2.09,16.83,5.95,24.78,3.86,6-1.56,5.35-4.21,10.79-5.14,8.84-1.5,11.69,5.4,21.07,5.14,7.1-.2,8.2-3.61,17.48-6.68,15.26-5.05,33-1.68,33.88,2.82.35,1.76-1.7,4.74-12.81,10a41.43,41.43,0,0,0-19-.52c-9.31,2.05-10.9,6.15-18.5,6.17-8.6,0-10.63-5.21-18.5-4.11-5.95.83-7.61,4.2-12.33,6.17-5.56,2.31-14.9,2.47-31.2-8.57L80.86,199.5A79.73,79.73,0,0,1,97.86,200.5Z"/><path class="cls-3" d="M96.86,144.16c12.37-2.09,16.83-5.95,24.78-3.86,6,1.56,5.35,4.21,10.79,5.14,8.84,1.5,11.69-5.4,21.07-5.14,7.1.2,8.2,3.61,17.48,6.68,15.26,5.05,33,1.68,33.88-2.82.35-1.76-1.7-4.74-12.81-10a41.43,41.43,0,0,1-19,.52c-9.31-2.05-10.9-6.15-18.5-6.17-8.6,0-10.63,5.21-18.5,4.11-5.95-.83-7.61-4.2-12.33-6.17-5.56-2.31-14.9-2.47-31.2,8.57L79.86,145.16A79.73,79.73,0,0,0,96.86,144.16Z"/><ellipse class="cls-2" cx="512.63" cy="309.26" rx="77" ry="54"/><path class="cls-3" d="M442.13,293.76c19.7,12.94,32.05,12.9,39.82,10.19,7-2.43,8.23-6.25,15.86-7.55,13-2.21,17.17,7.94,31,7.55,10.57-.29,10.3-6.32,25.67-9.81,4.11-.94,24.77-5.63,31,3.77,1,1.45,3.35,5.95,0,15.1a60.6,60.6,0,0,0-27.94-.75c-13.68,3-16,9-27.18,9.06-12.65,0-15.62-7.65-27.19-6-8.75,1.22-11.18,6.17-18.12,9.06-8.17,3.4-21.9,3.64-45.84-12.58Z"/><path class="cls-3" d="M466.13,337.76c12.37,2.09,16.83,5.95,24.78,3.86,6-1.57,5.35-4.21,10.79-5.14,8.84-1.51,11.69,5.4,21.07,5.14,7.09-.2,8.19-3.61,17.47-6.68,15.26-5.05,33-1.68,33.89,2.82.34,1.76-1.7,4.74-12.82,10a41.24,41.24,0,0,0-19-.52c-9.31,2.05-10.9,6.14-18.5,6.17-8.61,0-10.63-5.21-18.5-4.11-6,.83-7.61,4.2-12.34,6.16-5.55,2.32-14.9,2.48-31.19-8.56l-12.64-10.17A79.73,79.73,0,0,1,466.13,337.76Z"/><path class="cls-3" d="M465.13,281.42c12.37-2.1,16.83-5.95,24.78-3.86,6,1.56,5.35,4.21,10.79,5.13,8.84,1.51,11.69-5.4,21.07-5.13,7.09.19,8.19,3.6,17.47,6.68,15.26,5.05,33,1.67,33.89-2.82.34-1.77-1.7-4.74-12.82-10a41.25,41.25,0,0,1-19,.51c-9.31-2-10.9-6.14-18.5-6.16-8.61,0-10.63,5.2-18.5,4.11-6-.83-7.61-4.2-12.34-6.17-5.55-2.31-14.9-2.47-31.19,8.56l-12.64,10.18A79.73,79.73,0,0,0,465.13,281.42Z"/><ellipse class="cls-2" cx="779.36" cy="312" rx="77" ry="54"/><path class="cls-3" d="M708.86,296.5c19.7,12.94,32.06,12.9,39.82,10.2,7-2.43,8.23-6.26,15.86-7.56,13-2.21,17.17,7.94,31,7.56,10.57-.3,10.3-6.33,25.68-9.82,4.11-.94,24.76-5.63,31,3.77,1,1.46,3.35,6,0,15.11A60.73,60.73,0,0,0,824.2,315c-13.68,3-16,9-27.19,9.06-12.65.05-15.62-7.65-27.18-6-8.75,1.22-11.19,6.18-18.13,9.07-8.17,3.39-21.9,3.63-45.84-12.59Z"/><path class="cls-3" d="M732.86,340.5c12.37,2.09,16.83,5.95,24.78,3.86,6-1.56,5.35-4.21,10.79-5.14,8.84-1.5,11.69,5.4,21.07,5.14,7.1-.2,8.2-3.61,17.48-6.68,15.26-5.05,33-1.68,33.88,2.82.35,1.76-1.7,4.74-12.81,10a41.43,41.43,0,0,0-19-.52c-9.31,2.05-10.9,6.15-18.5,6.17-8.6,0-10.63-5.21-18.5-4.11-5.95.83-7.61,4.2-12.33,6.17-5.56,2.31-14.9,2.47-31.2-8.57L715.86,339.5A79.73,79.73,0,0,1,732.86,340.5Z"/><path class="cls-3" d="M731.86,284.16c12.37-2.09,16.83-6,24.78-3.86,6,1.56,5.35,4.21,10.79,5.14,8.84,1.5,11.69-5.4,21.07-5.14,7.1.2,8.2,3.61,17.48,6.68,15.26,5,33,1.68,33.88-2.82.35-1.76-1.7-4.74-12.81-10a41.43,41.43,0,0,1-19,.52c-9.31-2-10.9-6.15-18.5-6.17-8.6,0-10.63,5.21-18.5,4.11-5.95-.83-7.61-4.2-12.33-6.17-5.56-2.31-14.9-2.47-31.2,8.57l-12.64,10.17A79.73,79.73,0,0,0,731.86,284.16Z"/><ellipse class="cls-2" cx="640.36" cy="311" rx="77" ry="54"/><path class="cls-3" d="M569.86,295.5c19.7,12.94,32.06,12.9,39.82,10.2,7-2.43,8.23-6.26,15.86-7.56,13-2.21,17.17,7.94,31,7.56,10.57-.3,10.3-6.33,25.68-9.82,4.11-.94,24.76-5.63,31,3.77,1,1.46,3.35,6,0,15.11A60.73,60.73,0,0,0,685.2,314c-13.68,3-16,9-27.19,9.06-12.65.05-15.62-7.65-27.18-6-8.75,1.22-11.19,6.18-18.13,9.07-8.17,3.39-21.9,3.63-45.84-12.59Z"/><path class="cls-3" d="M593.86,339.5c12.37,2.09,16.83,5.95,24.78,3.86,6-1.56,5.35-4.21,10.79-5.14,8.84-1.5,11.69,5.4,21.07,5.14,7.1-.2,8.2-3.61,17.48-6.68,15.26-5.05,33-1.68,33.88,2.82.35,1.76-1.7,4.74-12.81,10a41.43,41.43,0,0,0-19-.52c-9.31,2.05-10.9,6.15-18.5,6.17-8.6,0-10.63-5.21-18.5-4.11-5.95.83-7.61,4.2-12.33,6.17-5.56,2.31-14.9,2.47-31.2-8.57L576.86,338.5A79.73,79.73,0,0,1,593.86,339.5Z"/><path class="cls-3" d="M592.86,283.16c12.37-2.09,16.83-6,24.78-3.86,6,1.56,5.35,4.21,10.79,5.14,8.84,1.5,11.69-5.4,21.07-5.14,7.1.2,8.2,3.61,17.48,6.68,15.26,5,33,1.68,33.88-2.82.35-1.76-1.7-4.74-12.81-10a41.43,41.43,0,0,1-19,.52c-9.31-2-10.9-6.15-18.5-6.17-8.6,0-10.63,5.21-18.5,4.11-5.95-.83-7.61-4.2-12.33-6.17-5.56-2.31-14.9-2.47-31.2,8.57l-12.64,10.17A79.73,79.73,0,0,0,592.86,283.16Z"/><ellipse class="cls-2" cx="291.36" cy="166" rx="54" ry="77"/><path class="cls-3" d="M306.86,95.5c-12.94,19.7-12.9,32.05-10.19,39.82,2.43,7,6.25,8.23,7.55,15.86,2.21,13-7.94,17.17-7.55,31,.29,10.57,6.32,10.3,9.81,25.67.94,4.11,5.63,24.77-3.77,31-1.46,1-5.95,3.35-15.11,0a60.45,60.45,0,0,0,.76-27.94c-3-13.68-9-16-9.06-27.18,0-12.65,7.65-15.62,6-27.19-1.22-8.75-6.17-11.18-9.06-18.12-3.4-8.17-3.64-21.9,12.58-45.84Z"/><path class="cls-3" d="M262.86,119.5c-2.09,12.37-5.95,16.83-3.86,24.78,1.57,6,4.21,5.35,5.14,10.79,1.51,8.84-5.4,11.69-5.14,21.07.2,7.09,3.61,8.2,6.68,17.48,5.05,15.25,1.68,33-2.82,33.88-1.76.34-4.74-1.7-10-12.81a41.29,41.29,0,0,0,.52-19c-2-9.31-6.14-10.9-6.17-18.5,0-8.61,5.21-10.63,4.11-18.5-.83-6-4.2-7.61-6.16-12.33-2.32-5.56-2.48-14.91,8.56-31.2l10.17-12.64A79.73,79.73,0,0,1,262.86,119.5Z"/><path class="cls-3" d="M319.2,118.5c2.1,12.37,5.95,16.83,3.86,24.78-1.56,6-4.21,5.35-5.14,10.79-1.5,8.84,5.41,11.69,5.14,21.07-.19,7.09-3.61,8.2-6.68,17.48-5.05,15.25-1.67,33,2.82,33.88,1.77.34,4.74-1.7,10-12.81a41.3,41.3,0,0,1-.51-19c2-9.31,6.14-10.9,6.16-18.5,0-8.61-5.2-10.63-4.11-18.5.83-6,4.2-7.61,6.17-12.33,2.31-5.56,2.47-14.91-8.57-31.2L318.2,101.5A79.73,79.73,0,0,0,319.2,118.5Z"/><path class="cls-2" d="M446.36,313l-343-4q-14-52-28-104l374,2Z"/><path class="cls-4" d="M415.36,212.5l-343-1.91q-7-23.29-14-46.59l356,5Q414.87,190.75,415.36,212.5Z"/><path class="cls-3" d="M469.36,215.5l-173.42-1.57-7.08-38.43,180,4.12Q469.11,197.56,469.36,215.5Z"/><path class="cls-5" d="M332.86,354.5a193.31,193.31,0,0,1-24.5-.5,22.34,22.34,0,0,1-8-2,23,23,0,0,1-9-8,28.73,28.73,0,0,1-5-16q.25-32.75.5-65.5a10,10,0,0,1,20-1v67c0,5.25,2.66,7.13,4,8,2.06,1.34,4.29,1.14,7,1a99.06,99.06,0,0,1,15,0"/><path class="cls-3" d="M305.14,274.5V262.07c-.53-4.77-4.16-8.34-8.28-8.33-4.4,0-8.16,4.11-8.27,9.26v11.5a18.12,18.12,0,0,0,16.55,0Z"/><path class="cls-5" d="M443.12,117.29c4.76-14.51,17.07-48.57,19.71-49,3.19-.52,16.75,34.73,21.38,49.56"/><path class="cls-5" d="M479.93,252.9H349.39a31.1,31.1,0,0,1-30.93-31.28V148.85a32.39,32.39,0,0,1,9.06-22.12,31.49,31.49,0,0,1,20.85-9.21v6.6l1-6.55c3.06-10.79,6.69-23.7,10.74-38.36,2.3-8.34,3.18-11.58,5.25-11.89,1.48-.23,5.24.81,26.1,50.53,1.1,2.64,2,4.81,2.61,6.27l-2.61-6.6,88.45,0c2.68.08,13.5.69,21.87,9.16a32.2,32.2,0,0,1,7.67,12.82,31.38,31.38,0,0,1,1.39,9.3v72.77A31.1,31.1,0,0,1,479.93,252.9Z"/><ellipse class="cls-6" cx="471.99" cy="226.51" rx="19.99" ry="19.93"/><ellipse cx="397.31" cy="176.53" rx="9.44" ry="9.55"/><ellipse cx="488.93" cy="175.97" rx="9.44" ry="9.55"/><path class="cls-6" d="M495.82,238.73c-12.38,1.27-22.1-9.69-23.57-11.4-1.39,1.39-13.15,12.85-25.38,11.4-2.32-.27-6.82-.8-10.28-4.3a15.59,15.59,0,0,1-3.6-6,14.68,14.68,0,0,1-.66-4.37V206.56a14.62,14.62,0,0,1,14.54-14.7h48.95a14.62,14.62,0,0,1,14.54,14.7V224a15.73,15.73,0,0,1-4.26,10.4C502.52,238.05,498.1,238.5,495.82,238.73Z"/><ellipse class="cls-5" cx="472.27" cy="203.49" rx="11.38" ry="7.58"/><path class="cls-3" d="M349.22,237.49A38.73,38.73,0,0,1,343.84,222c-1.58-14.31-.65-29.32-.76-43.71-.1-12.52-.37-25.32.87-37.8a32.57,32.57,0,0,1,1.34-6.64V119.45a30.22,30.22,0,0,0-25,29.88v70.59a30,30,0,0,0,29.57,31.58h13A42.75,42.75,0,0,1,349.22,237.49Z"/><path class="cls-3" d="M443.55,232.8a12.47,12.47,0,0,1-1.79-5.14V202.71a7.61,7.61,0,0,1,0-4c1.06-3.76,4.8-5.14,5.23-5.29a10.74,10.74,0,0,0-6.53,1.32,13,13,0,0,0-3.92,4,20.68,20.68,0,0,0-2.61,4.72V227a17.19,17.19,0,0,0,10,10.1H448A12.47,12.47,0,0,1,443.55,232.8Z"/><polygon class="cls-3" points="368.92 89.94 374.46 103.46 380.01 116.98 370.03 117.39 360.05 117.8 364.48 103.87 368.92 89.94"/><polygon class="cls-3" points="465.64 87.93 470.47 101.72 475.29 115.51 465.31 115.4 455.32 115.29 460.48 101.61 465.64 87.93"/><path class="cls-3" d="M448.86,146.5q-5.19-6.87-11-14-5.55-6.8-11-13h19a44.22,44.22,0,0,1,3,27Z"/><path class="cls-4" d="M412.36,297h60.5a4.6,4.6,0,0,1,4.72,3.91l51.78-.89a10.1,10.1,0,0,0-2-20l-31-1h-5c-.33-1-.66-2-1-3a18.38,18.38,0,0,0-2-12c-4.12-7.32-11.9-8.81-13-9h-35a29.14,29.14,0,0,0-28,31Z"/><path class="cls-4" d="M544.36,343h-26a7.07,7.07,0,0,1-8-8V324a26.19,26.19,0,0,0-7-11,27.18,27.18,0,0,0-18-7,5.15,5.15,0,0,1-.88,0H426.36v31a29.07,29.07,0,0,0,31,27l87,1a11.22,11.22,0,0,0,0-22Z"/><rect class="cls-5" x="325.36" y="254" width="180" height="110" rx="37.6"/><path class="cls-5" d="M496.86,216h30"/><path class="cls-5" d="M495.32,206.68l29.08-7.36"/><path class="cls-5" d="M495.32,206.68l29.08-7.36"/><path class="cls-5" d="M494.32,225.32l29.08,7.36"/><path class="cls-5" d="M494.32,225.32l29.08,7.36"/><path class="cls-5" d="M447.86,216h-30"/><path class="cls-5" d="M717.3,147.56,711.86,153"/><path class="cls-5" d="M729.86,135l-5,5"/><path class="cls-5" d="M717.3,140.44,711.86,135"/><path class="cls-5" d="M729.86,153l-5-5"/><path class="cls-5" d="M568.3,63.56,562.86,69"/><path class="cls-5" d="M580.86,51l-5,5"/><path class="cls-5" d="M568.3,56.44,562.86,51"/><path class="cls-5" d="M580.86,69l-5-5"/><path class="cls-5" d="M506.86,28V40"/><path class="cls-5" d="M512.86,34h-12"/><path class="cls-5" d="M555.86,0V12"/><path class="cls-5" d="M561.86,6h-12"/><path class="cls-5" d="M449.4,206.68l-29.08-7.36"/><path class="cls-5" d="M449.4,206.68l-29.08-7.36"/><path class="cls-5" d="M450.4,225.32l-29.08,7.36"/><path class="cls-5" d="M450.4,225.32l-29.08,7.36"/><path class="cls-5" d="M407.36,254c7.37,33.41,37.49,56.94,71,56,32.09-.9,60-24,67-56Z"/><path class="cls-4" d="M414.86,255a63.06,63.06,0,0,0,123,0Z"/><path class="cls-4" d="M352.36,254a29.14,29.14,0,0,0-28,31v52a29.07,29.07,0,0,0,31,27l87,1a11.22,11.22,0,0,0,0-22h-26a8.68,8.68,0,0,1-5-2,8.88,8.88,0,0,1-3-6V324a26.19,26.19,0,0,0-7-11,27.18,27.18,0,0,0-18-7c-2,.13-3.69-.84-4-2-.37-1.41,1.15-3.68,4-4l58-1a10.1,10.1,0,0,0-2-20h-31a5.36,5.36,0,0,1-6-4,18.38,18.38,0,0,0-2-12c-4.12-7.32-11.9-8.81-13-9Z"/><path class="cls-7" d="M352.86,340.73q-6.87-5.21-14-11c-4.53-3.7-8.86-7.38-13-11v19a44.44,44.44,0,0,0,27,3Z"/><path class="cls-7" d="M352.86,302.73q-6.87-5.21-14-11c-4.53-3.7-8.86-7.38-13-11v19a44.44,44.44,0,0,0,27,3Z"/><ellipse cx="446.31" cy="265.53" rx="3.55" ry="3.59"/><ellipse cx="458.31" cy="284.53" rx="3.55" ry="3.59"/><ellipse cx="479.86" cy="267.53" rx="3.55" ry="3.59"/><ellipse cx="487.31" cy="288.53" rx="3.55" ry="3.59"/><ellipse cx="512.31" cy="271.53" rx="3.55" ry="3.59"/><path class="cls-5" d="M702.38,197.41C684,226.25,688.62,264.19,713,287.22c23.33,22,59.41,25.41,87,7.78Z"/><path class="cls-4" d="M707,203.43a63.05,63.05,0,0,0,87,87Z"/><ellipse cx="721.76" cy="233.11" rx="3.59" ry="3.55" transform="translate(46.57 578.64) rotate(-45)"/><ellipse cx="716.82" cy="255.03" rx="3.59" ry="3.55" transform="translate(29.62 581.56) rotate(-45)"/><ellipse cx="744.08" cy="258.25" rx="3.59" ry="3.55" transform="translate(35.33 601.78) rotate(-45)"/><ellipse cx="734.49" cy="278.36" rx="3.59" ry="3.55" transform="translate(18.3 600.9) rotate(-45)"/><ellipse cx="764.19" cy="284.02" rx="3.59" ry="3.55" transform="translate(22.99 623.55) rotate(-45)"/><path class="cls-5" d="M830.36,365c-7.36-33.41-37.48-56.95-71-56-32.09.9-60,24-67,56Z"/><path class="cls-4" d="M822.86,364a63.06,63.06,0,0,0-123,0Z"/><ellipse cx="791.42" cy="353.5" rx="3.55" ry="3.59"/><ellipse cx="779.42" cy="334.5" rx="3.55" ry="3.59"/><ellipse cx="757.86" cy="351.5" rx="3.55" ry="3.59"/><ellipse cx="750.42" cy="330.5" rx="3.55" ry="3.59"/><ellipse cx="725.42" cy="347.5" rx="3.55" ry="3.59"/><circle class="cls-4" cx="178.36" cy="315" r="48"/><path class="cls-7" d="M164.35,325.88c-8.3-10.77-18.58-42-19.73-43.32a46.7,46.7,0,0,0,51.24,75.18C194.48,354.85,171.7,335.42,164.35,325.88Z"/><path class="cls-4" d="M104.31,363.18q177.66.9,355.47,1.29l-355.47-1.33Z"/><path class="cls-4" d="M866.48,366l9.78,0-9.78,0Z"/><path class="cls-4" d="M856.48,365.93q-198.21-1.06-396.7-1.46L856.48,366Z"/><path class="cls-4" d="M73.8,363l-6.44,0,6.44,0Z"/><path class="cls-4" d="M83.8,363.06v0l10.51.05v0Z"/><circle class="cls-5" cx="178.36" cy="315" r="33"/><path class="cls-8" d="M159.86,299.5c2.81,3.64,5.72,7.43,5.07,8.07-.26.26-.94-.14-8.07-5.07-3.79-2.62-7.31-5.09-7-7a4.88,4.88,0,0,1,.93-2.07,3.8,3.8,0,0,1,1.07-.93C152.58,292.18,154.44,292.45,159.86,299.5Z"/><path class="cls-8" d="M167.37,290c2.73,5,5.23,7.94,4.45,8.69a.25.25,0,0,1-.1.08c-1.31.77-4.08-2.78-8.86-6.26-3.61-2.63-6.25-3.66-6-5,.15-.81,1.34-1.58,2-2,.49-.31.64-.31,2-1a14.41,14.41,0,0,1,2-1C164.26,283.38,165.28,286.17,167.37,290Z"/><circle class="cls-2" cx="178.36" cy="315" r="23"/><path class="cls-7" d="M188.86,299c-.1.36-.19.63-.21.7-.71,2.17-3,7.8-7.79,7.8s-7.64-7.55-8-8.5a17.39,17.39,0,0,1-1-7.5,21.61,21.61,0,0,1,18,2A26,26,0,0,1,188.86,299Z"/></g></g></svg>