<svg xmlns="http://www.w3.org/2000/svg" viewBox="0 0 813.41 505.43"><defs><style>.cls-1{fill:#40444b;}.cls-2{fill:#666;}.cls-2,.cls-4,.cls-5,.cls-6,.cls-7,.cls-8{stroke:#000;stroke-miterlimit:10;stroke-width:3px;}.cls-3,.cls-5{fill:#4d4d4d;}.cls-4{fill:#999;}.cls-6{fill:gray;}.cls-7{fill:none;}.cls-8{fill:#ccc;}</style></defs><g id="Layer_2" data-name="Layer 2"><g id="Cat_Compass" data-name="Cat Compass"><path class="cls-1" d="M548,472.61l-354.5-1.5q1.75-42.25,3.5-84.5c6.05.56,11.29-3.71,12-9,.79-5.89-4.18-11.91-11-12l12-129a13.51,13.51,0,1,0,0-27l-16.5-179H641q-11.5,89.51-23,179a13.85,13.85,0,0,0-13,13c-.26,7.39,6,14,14,14l-70,129a12.08,12.08,0,1,0-2,24Q547.5,431.11,548,472.61Z"/><rect class="cls-1" x="126" y="386.58" width="466" height="115.85" rx="57.93"/><rect class="cls-1" x="100.42" width="710.58" height="210.29" rx="105.14"/><rect class="cls-1" y="236" width="690" height="129.63" rx="64.81"/><path class="cls-2" d="M298.86,434.32a208.24,208.24,0,0,1-26.35-.54,24,24,0,0,1-8.6-2.15,24.63,24.63,0,0,1-9.68-8.61,30.87,30.87,0,0,1-5.38-17.2l.54-70.45a10.78,10.78,0,0,1,21.51-1.07v72.05c0,5.65,2.85,7.67,4.3,8.61,2.22,1.44,4.61,1.23,7.53,1.07a107.2,107.2,0,0,1,16.13,0"/><path class="cls-3" d="M269,348.28V334.92c-.56-5.14-4.46-9-8.9-9-4.73,0-8.78,4.43-8.89,10v12.37a19.48,19.48,0,0,0,17.79,0Z"/><path class="cls-2" d="M417.44,179.2c5.13-15.6,18.36-52.24,21.2-52.7,3.43-.56,18,37.35,23,53.31"/><path class="cls-2" d="M457,325.05H316.63a33.45,33.45,0,0,1-33.26-33.64V213.14a34.81,34.81,0,0,1,9.74-23.78,33.89,33.89,0,0,1,22.43-9.92v7.11q.56-3.53,1.09-7c3.3-11.61,7.2-25.49,11.56-41.26,2.47-9,3.42-12.46,5.64-12.79,1.6-.24,5.64.87,28.07,54.35,1.19,2.83,2.16,5.17,2.81,6.74l-2.81-7.11,95.14.07c2.87.08,14.51.74,23.52,9.85a34.59,34.59,0,0,1,8.24,13.78,34,34,0,0,1,1.5,10v78.27A33.45,33.45,0,0,1,457,325.05Z"/><ellipse class="cls-4" cx="448.49" cy="296.66" rx="21.5" ry="21.44"/><ellipse cx="368.17" cy="242.92" rx="10.15" ry="10.27"/><ellipse cx="466.71" cy="242.31" rx="10.15" ry="10.27"/><path class="cls-4" d="M474.12,309.81c-13.31,1.36-23.77-10.42-25.35-12.26-1.49,1.49-14.14,13.82-27.29,12.26-2.5-.29-7.34-.87-11.06-4.63a17,17,0,0,1-3.88-6.48,16.14,16.14,0,0,1-.7-4.7V275.21a15.73,15.73,0,0,1,15.64-15.81h52.64a15.73,15.73,0,0,1,15.64,15.81V294a16.92,16.92,0,0,1-4.58,11.18C481.33,309.08,476.58,309.56,474.12,309.81Z"/><ellipse class="cls-2" cx="448.79" cy="271.9" rx="12.24" ry="8.15"/><path class="cls-3" d="M316.45,308.47a41.73,41.73,0,0,1-5.79-16.62c-1.69-15.39-.69-31.53-.81-47-.1-13.46-.39-27.24.94-40.65a34.36,34.36,0,0,1,1.44-7.14V181.53a32.5,32.5,0,0,0-26.89,32.13v75.92a33,33,0,0,0,8.14,23.21c9.23,10.33,21.63,10.72,23.67,10.75h14A46,46,0,0,1,316.45,308.47Z"/><path class="cls-3" d="M417.91,303.43A13.43,13.43,0,0,1,416,297.9V271.07a8.1,8.1,0,0,1,0-4.26c1.14-4,5.16-5.52,5.62-5.69a11.63,11.63,0,0,0-7,1.42,14.17,14.17,0,0,0-4.22,4.27,23.19,23.19,0,0,0-2.81,5.07v25.26a18.74,18.74,0,0,0,4.22,6.6,18.45,18.45,0,0,0,6.52,4.26h4.42A13.16,13.16,0,0,1,417.91,303.43Z"/><polygon class="cls-3" points="337.64 149.78 343.6 164.33 349.56 178.87 338.83 179.31 328.1 179.75 332.87 164.77 337.64 149.78"/><polygon class="cls-3" points="441.66 147.62 446.85 162.46 452.04 177.29 441.3 177.17 430.56 177.05 436.11 162.34 441.66 147.62"/><path class="cls-3" d="M423.62,210.62q-5.6-7.4-11.83-15.06-6-7.31-11.83-14h20.43a47.62,47.62,0,0,1,3.23,29Z"/><path class="cls-5" d="M384.36,372.46h65.07a5,5,0,0,1,5.08,4.2l55.68-1A10.87,10.87,0,0,0,508,354.19l-33.34-1.07h-5.37l-1.08-3.23A19.72,19.72,0,0,0,466.1,337c-4.43-7.88-12.8-9.48-14-9.68H414.48a31.35,31.35,0,0,0-30.12,33.34Z"/><path class="cls-5" d="M526.33,422h-28a7.6,7.6,0,0,1-8.6-8.6V401.52a28.15,28.15,0,0,0-7.53-11.84,29.26,29.26,0,0,0-19.36-7.52,5.85,5.85,0,0,1-.94,0H399.42V415.5a31.24,31.24,0,0,0,33.34,29l93.57,1.08a12.07,12.07,0,0,0,0-23.66Z"/><rect class="cls-2" x="290.8" y="326.23" width="193.59" height="118.3" rx="30.72"/><path class="cls-6" d="M475.24,285.36h32.27"/><path class="cls-6" d="M473.58,275.34l31.28-7.92"/><path class="cls-6" d="M473.58,275.34l31.28-7.92"/><path class="cls-6" d="M472.51,295.38l31.28,7.92"/><path class="cls-6" d="M472.51,295.38l31.28,7.92"/><path class="cls-6" d="M422.54,285.36H390.28"/><path class="cls-6" d="M424.2,275.34l-31.28-7.92"/><path class="cls-6" d="M424.2,275.34l-31.28-7.92"/><path class="cls-6" d="M425.28,295.38,394,303.3"/><path class="cls-6" d="M425.28,295.38,394,303.3"/><path class="cls-3" d="M320.37,419.5q-7.39-5.58-15.06-11.83-7.31-6-14-11.83v20.44a47.54,47.54,0,0,0,29,3.22Z"/><path class="cls-3" d="M320.37,378.64Q313,373,305.31,366.8q-7.31-6-14-11.83v20.44a47.64,47.64,0,0,0,29,3.23Z"/><circle class="cls-5" cx="454.5" cy="363.11" r="57"/><circle class="cls-4" cx="454.5" cy="363.11" r="47"/><path class="cls-7" d="M347,228.09a18.29,18.29,0,0,0,16-15"/><path class="cls-7" d="M482,227.09a18.29,18.29,0,0,1-16-15"/><path class="cls-7" d="M450.74,334.93l-.24-8.53,9,8.33v-9.12"/><path class="cls-7" d="M494,356.66h-6.21v11.9H495"/><path class="cls-7" d="M487.5,362.87h4.14"/><path class="cls-7" d="M458.78,390.52c-3-1.65-6.13-1.27-7.06,0s-.08,3.27,1.41,4.28c1.82,1.22,3.66.1,4.95,1.22s1.36,4.05-.71,5.5a5.4,5.4,0,0,1-7.06-1.22"/><path class="cls-7" d="M415,357q1.47,5.61,2.95,11.22,1.79-3.24,3.55-6.5,1.77,3.25,3.55,6.5L428,357.59"/><path class="cls-5" d="M319.83,326.23a31.33,31.33,0,0,0-30.11,33.34V415.5a31.24,31.24,0,0,0,33.34,29l93.57,1.08a12.07,12.07,0,0,0,0-23.66h-28a9.32,9.32,0,0,1-5.37-2.15,9.57,9.57,0,0,1-3.23-6.45V401.52a28.15,28.15,0,0,0-7.53-11.84,29.25,29.25,0,0,0-19.36-7.52c-2.17.14-4-.91-4.3-2.15-.4-1.52,1.24-4,4.3-4.31l62.38-1.07a10.87,10.87,0,0,0-2.15-21.51H380.06a5.77,5.77,0,0,1-6.45-4.3,19.81,19.81,0,0,0-2.15-12.91c-4.43-7.88-12.81-9.47-14-9.68Z"/><path class="cls-2" d="M480.41,383.62c-5-6.44-9-12.1-12.1-16.57-5.56-8.13-7.4-11.56-10.75-11.65-4.28-.12-9.14,5.29-8.51,9.41.48,3.18,4.07,4.55,12.09,8.51C465.9,375.67,472.53,379.08,480.41,383.62Z"/><path class="cls-8" d="M432,341.4c5,6.44,9,12.09,12.1,16.57,5.56,8.13,7.4,11.56,10.75,11.65,4.28.12,9.13-5.29,8.51-9.41-.48-3.18-4.07-4.55-12.09-8.51C446.5,349.35,439.87,345.94,432,341.4Z"/><ellipse cx="455.71" cy="361.31" rx="3.26" ry="3.3"/><rect class="cls-1" x="625.32" y="389.58" width="188.09" height="115.85" rx="57.93"/><path class="cls-4" d="M377,60.65l10.64-7.28c-.45-.18-7.09-3.06-7.84-8.95-.92-7.28,8.05-11.86,9-12.32,5.58-2.85,15.08-3.83,20.16,2.24,5.22,6.25,2.49,16.1-1.68,20.71-1.81,2-4.56,3.71-10.06,7.13a28.23,28.23,0,0,0-7.22,5.66,26.81,26.81,0,0,0-2.88,4,36.91,36.91,0,0,0-3.92,9A37.43,37.43,0,0,0,382,95.36l15.68-1.12c-1-5.06-1.52-12.26,2.24-18.47,2.77-4.58,5.72-5.08,10.64-9.52,2.78-2.52,13.75-12.43,13.43-25.19-.22-9.06-6.1-18.55-14.55-22.4-16.67-7.59-40.93,7.9-41.43,24.08C367.74,51.33,374.23,58.09,377,60.65Z"/><circle class="cls-4" cx="389.84" cy="110.48" r="9.52"/><path class="cls-4" d="M454.11,64.58l8.2-1.25c-.21-.24-3.26-3.75-2.05-7.38,1.5-4.47,8-4.62,8.63-4.63,4-.1,9.8,2,11.05,6.91,1.28,5.08-3.05,10-6.75,11.53-1.61.66-3.68.88-7.82,1.33a18.29,18.29,0,0,0-5.75,1.26,17.57,17.57,0,0,0-2.79,1.52,23.44,23.44,0,0,0-9.47,12.22l9.39,3.72c.83-3.21,2.54-7.53,6.45-10.08,2.88-1.88,4.73-1.34,8.81-2.54,2.32-.69,11.44-3.37,14.81-10.85a16.89,16.89,0,0,0-2.19-17c-7.54-9.05-25.91-6.84-30.71,2.39C451.37,56.6,453.24,62.33,454.11,64.58Z"/><circle class="cls-4" cx="447.68" cy="97.03" r="6.12"/><path class="cls-4" d="M315,75.8c1.08-2.54,2.15-5.09,3.22-7.63-.31,0-4.89.81-7.35-2.12-3-3.61.23-9.21.56-9.77,2-3.48,6.82-7.32,11.67-5.8,5,1.56,7,7.83,6.3,11.78-.28,1.71-1.17,3.59-3,7.35a18.31,18.31,0,0,0-1.93,5.57,17.12,17.12,0,0,0-.16,3.17,23.29,23.29,0,0,0,1,6.21,24.24,24.24,0,0,0,4.46,8.26l8.09-6.06c-2.3-2.39-5.09-6.11-5.22-10.77-.09-3.44,1.33-4.73,2.44-8.84.63-2.34,3.12-11.51-1.5-18.3a16.86,16.86,0,0,0-15.66-7c-11.65,1.69-19.37,18.5-14,27.42C306.8,74,312.67,75.37,315,75.8Z"/><circle class="cls-4" cx="339.33" cy="98.26" r="6.12"/><path class="cls-6" d="M552.44,157.67,547,163.11"/><path class="cls-6" d="M565,145.11l-5,5"/><path class="cls-6" d="M552.44,150.55,547,145.11"/><path class="cls-6" d="M565,163.11l-5-5"/><path class="cls-6" d="M665.44,272.67,660,278.11"/><path class="cls-6" d="M678,260.11l-5,5"/><path class="cls-6" d="M665.44,265.55,660,260.11"/><path class="cls-6" d="M678,278.11l-5-5"/><path class="cls-6" d="M187.44,350.67,182,356.11"/><path class="cls-6" d="M200,338.11l-5,5"/><path class="cls-6" d="M187.44,343.55,182,338.11"/><path class="cls-6" d="M200,356.11l-5-5"/><path class="cls-6" d="M169.65,88.42V99.89"/><path class="cls-6" d="M175.38,94.15H163.91"/><path class="cls-6" d="M114.65,303.42v11.47"/><path class="cls-6" d="M120.38,309.15H108.91"/><path class="cls-6" d="M623.65,82.42V93.89"/><path class="cls-6" d="M629.38,88.15H617.91"/><path class="cls-6" d="M685.65,58.42V69.89"/><path class="cls-6" d="M691.38,64.15H679.91"/><path class="cls-2" d="M75.58,444.8l-10.58,0v0l10.59,0Z"/><path class="cls-2" d="M702.3,445.79l14.7,0-14.7,0Z"/><path class="cls-2" d="M692.78,445.77l-10,0h0l10,0Z"/><path class="cls-2" d="M673.2,445.74l-10,0v0h10Z"/><path class="cls-2" d="M653.63,445.71l-534.14-.84a.43.43,0,0,0,0,.05q267,.52,534.15.81Z"/><path class="cls-2" d="M110.22,444.85l-25.34,0s0,0,0,0l25.37,0Z"/></g></g></svg>