<svg xmlns="http://www.w3.org/2000/svg" viewBox="0 0 1342.73 548.07"><defs><style>.cls-1{fill:#40444b;}.cls-2,.cls-8{fill:#666;}.cls-2,.cls-4,.cls-5,.cls-6,.cls-7{stroke:#000;stroke-miterlimit:10;stroke-width:3px;}.cls-3,.cls-5{fill:#4d4d4d;}.cls-4{fill:#999;}.cls-6{fill:gray;}.cls-7{fill:#333;}</style></defs><g id="Layer_2" data-name="Layer 2"><g id="Layer_1-2" data-name="Layer 1"><rect class="cls-1" x="139.15" y="17.32" width="341.41" height="210.29" rx="105.14"/><rect class="cls-1" x="1124.05" y="348.9" width="188.09" height="115.85" rx="57.93"/><path class="cls-1" d="M0,332.62C.79,288,36.81,251,78.32,256.12l356.73-6.52a112.46,112.46,0,0,0,51.82-24.86c8-6.77,18.21-15.65,25.91-31.54,6.94-14.31,8.67-27.81,10.87-44.93a256,256,0,0,0,2.07-33.45c.73-4.92,4.3-25.42,20.89-40.15A52.1,52.1,0,0,1,580,61.29l678,.45c48.59,16.23,84,67.08,84.65,125.34.85,72.28-51.93,134.17-117.47,134.34L1142,323.29c-2.55.62-33.94,8.93-44,41a69.25,69.25,0,0,0-1.64,33.58v46.65c-.23,6.05-2.77,54.31-39.15,84a86.17,86.17,0,0,1-66.89,18.66H194.16c-2.14-.3-35.48-5.63-47.31-37.32a66.6,66.6,0,0,1-3.27-31.72A66.8,66.8,0,0,0,142,452c-7.17-26.42-28.87-37.37-32.63-39.18H70.17C30.56,412.46-.72,375,0,332.62Z"/><path class="cls-2" d="M1006.06,531.3a200.82,200.82,0,0,0,25.19-.52,22.8,22.8,0,0,0,8.22-2,23.65,23.65,0,0,0,9.26-8.23,29.62,29.62,0,0,0,5.14-16.45q-.25-33.66-.52-67.33a10.31,10.31,0,0,0-20.56-1v68.88c0,5.4-2.73,7.32-4.11,8.22-2.12,1.38-4.4,1.18-7.2,1a101.87,101.87,0,0,0-15.42,0"/><path class="cls-3" d="M1034.57,449.05V436.28c.53-4.91,4.27-8.58,8.5-8.56,4.52,0,8.4,4.22,8.51,9.51v11.82a18.59,18.59,0,0,1-17,0Z"/><path class="cls-2" d="M892.72,287.44c-4.9-14.91-17.55-49.93-20.27-50.38-3.27-.53-17.22,35.71-22,51"/><path class="cls-2" d="M854.87,426.85H989.08a32,32,0,0,0,31.79-32.15V319.88a33.24,33.24,0,0,0-9.31-22.73,32.39,32.39,0,0,0-21.44-9.48v6.79c-.35-2.24-.7-4.49-1-6.73-3.15-11.1-6.88-24.36-11.05-39.43-2.36-8.58-3.26-11.91-5.39-12.23-1.53-.23-5.39.83-26.83,51.95-1.14,2.71-2.07,4.94-2.69,6.44.9-2.26,1.79-4.52,2.69-6.79l-90.94.06c-2.75.08-13.87.71-22.48,9.42a33.07,33.07,0,0,0-7.88,13.17,32.43,32.43,0,0,0-1.43,9.56V394.7A32,32,0,0,0,854.87,426.85Z"/><ellipse class="cls-4" cx="863.04" cy="399.72" rx="20.55" ry="20.49"/><ellipse cx="939.81" cy="348.34" rx="9.7" ry="9.81"/><ellipse cx="845.62" cy="347.76" rx="9.7" ry="9.81"/><path class="cls-4" d="M838.54,412.29c12.73,1.3,22.72-10,24.23-11.72,1.43,1.42,13.52,13.21,26.09,11.72,2.39-.29,7-.83,10.57-4.43a16,16,0,0,0,3.7-6.19,15.17,15.17,0,0,0,.68-4.5v-18a15,15,0,0,0-14.95-15.11H838.54a15,15,0,0,0-14.95,15.11v18A16.15,16.15,0,0,0,828,407.86C831.65,411.58,836.19,412.05,838.54,412.29Z"/><ellipse class="cls-2" cx="862.75" cy="376.05" rx="11.7" ry="7.79"/><path class="cls-3" d="M989.25,411a39.69,39.69,0,0,0,5.53-15.88c1.62-14.71.67-30.14.78-44.94.1-12.87.38-26-.89-38.86a33.38,33.38,0,0,0-1.38-6.82V289.66a31.07,31.07,0,0,1,25.7,30.72V393a30.81,30.81,0,0,1-30.4,32.46H975.22A44,44,0,0,0,989.25,411Z"/><path class="cls-3" d="M892.27,406.19a12.93,12.93,0,0,0,1.85-5.29c0-1.42,0-10.65,0-12.07V375.25a7.7,7.7,0,0,0,0-4.07c-1.08-3.86-4.93-5.28-5.37-5.43a11.1,11.1,0,0,1,6.72,1.35,13.57,13.57,0,0,1,4,4.08,21.77,21.77,0,0,1,2.69,4.85v24.15a17.94,17.94,0,0,1-4,6.3,17.66,17.66,0,0,1-6.23,4.07h-4.23A12.58,12.58,0,0,0,892.27,406.19Z"/><polygon class="cls-3" points="969 259.32 963.3 273.22 957.6 287.12 967.86 287.54 978.12 287.97 973.56 273.64 969 259.32"/><polygon class="cls-3" points="869.57 257.26 864.61 271.44 859.64 285.61 869.91 285.5 880.18 285.38 874.87 271.32 869.57 257.26"/><path class="cls-3" d="M886.81,317.47q5.36-7.07,11.31-14.39,5.7-7,11.31-13.37H889.9A45.35,45.35,0,0,0,886.21,303,45.86,45.86,0,0,0,886.81,317.47Z"/><path class="cls-5" d="M924.34,472.17h-62.2a4.72,4.72,0,0,0-4.85,4l-53.23-.92a10.39,10.39,0,0,1,2.05-20.56l31.87-1h5.14c.35-1,.69-2.06,1-3.08a18.93,18.93,0,0,1,2.06-12.34c4.23-7.53,12.24-9.06,13.36-9.25h36a30,30,0,0,1,28.79,31.87Z"/><path class="cls-5" d="M788.64,519.47h26.73a7.49,7.49,0,0,0,6.16-2.05,7.57,7.57,0,0,0,2.06-6.17V499.94a27,27,0,0,1,7.2-11.31,28,28,0,0,1,18.5-7.19,5.51,5.51,0,0,0,.91,0h59.74v31.89a29.87,29.87,0,0,1-31.86,27.75l-89.44,1a11.54,11.54,0,0,1,0-22.62Z"/><rect class="cls-2" x="828.73" y="427.98" width="185.04" height="113.08" rx="30.72" transform="translate(1842.5 969.04) rotate(180)"/><path class="cls-6" d="M837.47,388.92H806.63"/><path class="cls-6" d="M839.05,379.34l-29.89-7.57"/><path class="cls-6" d="M839.05,379.34l-29.89-7.57"/><path class="cls-6" d="M840.08,398.5l-29.9,7.56"/><path class="cls-6" d="M840.08,398.5l-29.9,7.56"/><path class="cls-6" d="M887.84,388.92h30.84"/><path class="cls-6" d="M886.26,379.34l29.89-7.57"/><path class="cls-6" d="M886.26,379.34l29.89-7.57"/><path class="cls-6" d="M885.23,398.5l29.9,7.56"/><path class="cls-6" d="M885.23,398.5l29.9,7.56"/><path class="cls-2" d="M929.48,428c-7.58,34.35-38.54,58.54-73,57.57-33-.93-61.66-24.72-68.88-57.57Z"/><path class="cls-5" d="M921.77,429a64.83,64.83,0,0,1-126.45,0Z"/><path class="cls-5" d="M986,428a29.95,29.95,0,0,1,28.78,31.87v53.46a29.87,29.87,0,0,1-31.87,27.75l-89.43,1a11.54,11.54,0,0,1,0-22.62h26.72a8.84,8.84,0,0,0,5.14-2.05,9.13,9.13,0,0,0,3.09-6.17V499.94a27,27,0,0,1,7.19-11.31,28,28,0,0,1,18.51-7.19c2.08.14,3.8-.87,4.11-2.06.38-1.45-1.18-3.79-4.11-4.11l-59.63-1a10.39,10.39,0,0,1,2.06-20.56h31.87a5.52,5.52,0,0,0,6.17-4.11,18.9,18.9,0,0,1,2-12.34c4.24-7.53,12.24-9.05,13.37-9.25Z"/><path class="cls-3" d="M985.5,517.14q7.07-5.35,14.4-11.31,7-5.7,13.36-11.31v19.53a45.35,45.35,0,0,1-13.33,3.69A45.86,45.86,0,0,1,985.5,517.14Z"/><path class="cls-3" d="M985.5,478.07q7.07-5.34,14.4-11.31,7-5.7,13.36-11.3V475a46,46,0,0,1-13.33,3.69A45.51,45.51,0,0,1,985.5,478.07Z"/><ellipse cx="889.44" cy="439.84" rx="3.65" ry="3.7"/><ellipse cx="877.1" cy="459.37" rx="3.65" ry="3.7"/><ellipse cx="854.95" cy="441.89" rx="3.65" ry="3.7"/><ellipse cx="847.29" cy="463.48" rx="3.65" ry="3.7"/><ellipse cx="821.59" cy="446" rx="3.65" ry="3.7"/><rect class="cls-2" x="444.77" y="485.58" width="15.98" height="31.96"/><path class="cls-5" d="M303,414.48a28,28,0,0,0,9.56,7.65A34,34,0,0,0,328.84,426l98.45-.95,11.47-17.21h0l9.56-10.51-65.2.14a30.48,30.48,0,0,0-5.33-8c-21.55-23.1-73.56-2.81-77.23-1.33C299.93,389.92,295.23,404.13,303,414.48Z"/><rect class="cls-5" x="442.1" y="424.36" width="21.3" height="62.55"/><path class="cls-2" d="M431.05,264.27a127.85,127.85,0,0,1-12,41.27,132,132,0,0,1-16-32l5.32-4a63,63,0,0,0-12-31.95c-16.46-22.14-42.15-24.9-46.6-25.3V195l-17.31-1.33q-.67,9.31-1.33,18.64c-5.25.59-31.24,4.08-47.94,26.63a65.46,65.46,0,0,0-12,29.29c-7.46,14.72-13.14,27.4-17.31,37.28-3,7.06-5.45,13.34-2.66,18.65,1.59,3,4.81,5.56,14.64,8a88.57,88.57,0,0,0,30.61,2.32l-1.73-17c-8.33-.16-17.08-.55-26.21-1.25,3.55-6.26,7.12-12.91,10.65-20,3.43-6.86,6.52-13.54,9.32-20l6.66,2.66,90.54-1.33a88.05,88.05,0,0,0,13.31,30.63c6,8.73,12.08,17.23,18.65,17.31,16.26.19,28.07-51.76,29.29-57.26Z"/><circle class="cls-2" cx="393.77" cy="151.09" r="13.32"/><circle class="cls-2" cx="292.57" cy="141.77" r="13.32"/><circle class="cls-2" cx="344.5" cy="148.43" r="51.93"/><path class="cls-2" d="M396.43,124.46c.63,6.07,4.75,46.17-13.11,54.88-10,4.9-15.82-5.6-38.15-5.62s-28.32,10.57-38.32,5.62c-16-7.93-13.82-41.52-13-54.88.8-12.1,2-27.2,13.32-37.28a39.64,39.64,0,0,1,14.65-8c12.71-4.12,23.67-1.47,34.62,1.33,14,3.58,22.15,5.67,29.29,13.31C394.05,102.69,395.29,113.36,396.43,124.46Z"/><path class="cls-5" d="M303.23,91.17a57.17,57.17,0,0,0-6.66,10.65,39.27,39.27,0,0,0-4,12,36.58,36.58,0,0,0,2.67,20l5.32,4a70.34,70.34,0,0,1,13.32-34.62Z"/><path class="cls-5" d="M293.9,133.78a54.52,54.52,0,0,0-1.33,16,55.41,55.41,0,0,0,9.06,26.63,52.67,52.67,0,0,0,18.12,17.31c20.13,11.37,40.88,4.41,42.06,4,22-7.79,29.65-27.92,30.63-30.62a63.29,63.29,0,0,1-13.32,0c-11.69-1.26-12.6-4.93-21.3-5.33-9.15-.42-10.41,3-25.3,4a83,83,0,0,1-10.65,0c-2.77-.19-7.44-.38-9.89-1.34-10.47-4.08-11.56-23.51-11.64-25.29Z"/><circle cx="331.85" cy="149.09" r="5.99"/><circle cx="377.12" cy="150.42" r="5.99"/><path class="cls-5" d="M383.12,105.82a34.31,34.31,0,0,1,7.62,10.65,44.84,44.84,0,0,1,3,10.65,76.12,76.12,0,0,1,1.33,10.65h1.33c.55-3.31,2-13.3.51-21.3-.42-2.22-1.07-4.67-1.07-4.67a72,72,0,0,0-3.43-10Z"/><path class="cls-7" d="M304.56,91.17a16.58,16.58,0,0,1,0-10.65c2.84-8.08,11.18-10.44,12-10.65-.87,4.9-.37,8.64,1.33,9.32a2,2,0,0,0,1.33,0,17.58,17.58,0,0,1,1.33-5.33c8.38-19.41,51.3-16.25,54.6-16a46.26,46.26,0,0,0-18.64,10.66c-.46.44-.91.88-1.34,1.33a57.47,57.47,0,0,1,47.94-2.67,73.08,73.08,0,0,0-16,10.66,74.57,74.57,0,0,0-6.66,6.65,101.06,101.06,0,0,0,16-5.32,101.46,101.46,0,0,0,10.65-5.33,44.9,44.9,0,0,1-6.65,18.64,44.11,44.11,0,0,1-8,9.32c-2.8,2.35-11.18,8.46-41.28,6.66a209.3,209.3,0,0,1-36-5.33Z"/><path class="cls-4" d="M337,169.24c1.59,7.36,9.06,13,18.11,13.11s16.66-5.31,18.45-12.62Z"/><path class="cls-4" d="M325.86,212.34a16.87,16.87,0,0,0,1.33,9.32c.35.76,3.84,8,12,9.32.6.1,9.32,1.39,14.64-5.33,4.52-5.7,2.87-12.51,2.67-13.31A51.72,51.72,0,0,1,371.13,215c17.49,5.9,26.6,19.51,29.3,24a57.83,57.83,0,0,1,8,34.62l-21.3,6.66V397.42l-90.54,1.33q-.68-59.25-1.33-118.5l-25.3-10.66a69.32,69.32,0,0,1,55.92-57.25Z"/><rect class="cls-4" x="439.44" y="485.58" width="26.63" height="9.32"/><path class="cls-7" d="M438.11,529.52q2.67-8.65,5.33-17.31l13.31-2.67a8.84,8.84,0,0,1,1.33-5.32,9.35,9.35,0,0,1,6.66-4v9.32l22.64,13.32q.66,3.33,1.33,6.66Z"/><rect class="cls-4" x="438.11" y="529.52" width="50.6" height="5.33"/><rect class="cls-2" x="436.16" y="492.27" width="15.98" height="31.96"/><rect class="cls-5" x="433.5" y="431.05" width="21.3" height="62.55"/><rect class="cls-4" x="430.84" y="492.27" width="26.63" height="9.32"/><path class="cls-7" d="M429.51,536.21q2.65-8.65,5.32-17.31l13.32-2.66a8.78,8.78,0,0,1,1.33-5.33,9.33,9.33,0,0,1,6.66-4v9.33l22.63,13.31q.68,3.33,1.33,6.66Z"/><rect class="cls-4" x="429.51" y="536.21" width="50.6" height="5.33"/><path class="cls-5" d="M461.7,401.1c1.41,1.78,1.75,3.67,1.91,11.47.07,3.31.11,7.52,0,12.43-.21.77-1.9,6.53-4.77,6.69-1.14.06-2.27-.56-4.78-3.83-9.85-12.79-14.87-12.23-14.34-17.2.58-5.46,5.81-13.38,13.38-13.38C453.59,397.28,458.74,397.35,461.7,401.1Z"/><path class="cls-5" d="M453.1,412.57c1.36,1.89,1.71,3.83,1.91,10.52.11,3.69.18,8.57,0,14.33-12.87,6.26-18,5.92-20.07,3.83-3.28-3.35.75-11.91-3.82-15.3-2.47-1.82-4.92-.48-5.74-1.91-2-3.41,7.4-16.82,18.16-16.25C444.11,407.82,450,408.22,453.1,412.57Z"/><rect class="cls-3" x="423.47" y="406.84" width="14.34" height="19.12" transform="translate(847.03 -14.24) rotate(90)"/><rect class="cls-3" x="439.24" y="392.98" width="7.65" height="19.12" transform="translate(845.6 -40.53) rotate(90)"/><rect class="cls-3" x="456.45" y="422.61" width="5.26" height="19.12" transform="translate(918.15 864.33) rotate(180)"/><rect class="cls-3" x="435.18" y="428.34" width="18.16" height="19.12" transform="translate(888.52 875.8) rotate(180)"/><path class="cls-2" d="M415.91,219.14c13.48,35.89-.45,76.39-32.52,96-30.7,18.74-71,14-97.14-11.71Z"/><path class="cls-5" d="M409.48,224.66a70.66,70.66,0,0,1-115.57,75.1Z"/><ellipse cx="386.36" cy="253.76" rx="3.98" ry="4.03" transform="translate(-75.88 251.49) rotate(-33.02)"/><ellipse cx="386.69" cy="278.93" rx="3.98" ry="4.03" transform="translate(-89.54 255.73) rotate(-33.02)"/><ellipse cx="356.06" cy="276.12" rx="3.98" ry="4.03" transform="translate(-92.95 238.59) rotate(-33.02)"/><ellipse cx="361.88" cy="300.4" rx="3.98" ry="4.03" transform="translate(-105.24 245.68) rotate(-33.02)"/><ellipse cx="328.01" cy="299.69" rx="3.98" ry="4.03" transform="matrix(0.84, -0.54, 0.54, 0.84, -110.32, 227.12)"/><path class="cls-2" d="M288.56,334.49c5.07-.21,10.73-.57,17.33-1l21.3-1.34,2.67-16c-10.74.82-22.32,1.33-34.62,1.33q-4.14,0-8.41-.08"/><path class="cls-2" d="M427.06,245.63c4.14,3.14,4.08,9.29,4,17.31a56.43,56.43,0,0,1-.49,6.82h16A55.11,55.11,0,0,0,445.7,251c-1.57-6.89-3.41-15-10.66-20-10.36-7.08-23.58-2-25.29-1.33V247C416.05,243.45,422.93,242.5,427.06,245.63Z"/><path class="cls-8" d="M443.06,277.32l-12.55-1.54,2-12.8L445,262a36.27,36.27,0,0,1,0,6.69A35.45,35.45,0,0,1,443.06,277.32Z"/><rect class="cls-5" x="493.25" y="482.35" width="84.12" height="17.21" transform="translate(1026.26 -44.35) rotate(90)"/><rect class="cls-5" x="692.07" y="481.39" width="84.12" height="17.21" transform="translate(1224.12 -244.13) rotate(90)"/><rect class="cls-5" x="364.21" y="479.48" width="84.12" height="17.21" transform="translate(894.35 81.82) rotate(90)"/><rect class="cls-5" x="355.12" y="488.56" width="90.81" height="17.21" transform="translate(897.69 96.64) rotate(90)"/><rect class="cls-5" x="281.05" y="478.53" width="84.12" height="17.21" transform="translate(810.23 164.03) rotate(90)"/><rect class="cls-5" x="700.67" y="491.91" width="84.12" height="17.21" transform="translate(1243.24 -242.22) rotate(90)"/><rect class="cls-5" x="484.64" y="491.91" width="84.12" height="17.21" transform="translate(1027.21 -26.19) rotate(90)"/><ellipse class="cls-5" cx="585.97" cy="381.98" rx="73.6" ry="51.62"/><path class="cls-8" d="M653.35,396.8c-18.82-12.37-30.63-12.33-38.06-9.75-6.67,2.33-7.86,6-15.16,7.22-12.41,2.12-16.41-7.59-29.59-7.22-10.1.29-9.85,6.05-24.54,9.39-3.93.89-23.67,5.38-29.6-3.61-.91-1.39-3.2-5.68,0-14.44a57.84,57.84,0,0,0,26.71.72c13.08-2.87,15.31-8.62,26-8.66,12.08,0,14.93,7.32,26,5.78,8.37-1.17,10.69-5.91,17.33-8.67,7.8-3.24,20.93-3.47,43.81,12Z"/><path class="cls-8" d="M630.41,354.74c-11.82-2-16.08-5.69-23.68-3.69-5.7,1.5-5.12,4-10.32,4.91-8.45,1.44-11.17-5.16-20.14-4.91-6.78.19-7.83,3.45-16.7,6.39-14.59,4.82-31.55,1.6-32.39-2.7-.33-1.68,1.63-4.53,12.25-9.58a39.46,39.46,0,0,0,18.17.49c8.9-2,10.42-5.87,17.69-5.9,8.22,0,10.16,5,17.68,3.93,5.69-.79,7.28-4,11.79-5.89,5.31-2.21,14.25-2.37,29.82,8.18l12.08,9.73A76.58,76.58,0,0,1,630.41,354.74Z"/><path class="cls-8" d="M631.37,408.59c-11.82,2-16.09,5.69-23.69,3.7-5.7-1.5-5.11-4-10.31-4.92-8.45-1.44-11.18,5.17-20.14,4.92-6.78-.19-7.84-3.45-16.7-6.39-14.59-4.83-31.55-1.6-32.39,2.69-.33,1.69,1.62,4.54,12.24,9.59a39.51,39.51,0,0,1,18.18-.49c8.9,2,10.42,5.87,17.68,5.89,8.23,0,10.17-5,17.69-3.93,5.69.8,7.27,4,11.79,5.9,5.31,2.21,14.24,2.36,29.82-8.19l12.08-9.72A76,76,0,0,0,631.37,408.59Z"/><ellipse class="cls-5" cx="635.87" cy="486.64" rx="73.6" ry="51.62"/><path class="cls-8" d="M703.25,501.46c-18.82-12.37-30.63-12.33-38.06-9.75-6.67,2.32-7.86,6-15.16,7.22-12.41,2.11-16.41-7.59-29.59-7.22-10.1.28-9.85,6-24.54,9.38-3.93.9-23.67,5.38-29.6-3.61-.91-1.39-3.2-5.68,0-14.43a58.11,58.11,0,0,0,26.71.72c13.08-2.88,15.31-8.63,26-8.66,12.08,0,14.93,7.31,26,5.77,8.37-1.16,10.69-5.9,17.33-8.66,7.8-3.25,20.93-3.48,43.81,12Z"/><path class="cls-8" d="M680.31,459.4c-11.82-2-16.08-5.69-23.68-3.69-5.7,1.49-5.12,4-10.32,4.91-8.45,1.44-11.17-5.17-20.14-4.91-6.78.19-7.83,3.45-16.7,6.38-14.59,4.83-31.55,1.6-32.39-2.69-.33-1.69,1.63-4.54,12.25-9.59a39.46,39.46,0,0,0,18.17.49c8.9-1.95,10.42-5.87,17.69-5.89,8.23,0,10.16,5,17.68,3.93,5.69-.8,7.28-4,11.79-5.9,5.31-2.21,14.25-2.36,29.82,8.19l12.08,9.72A76,76,0,0,1,680.31,459.4Z"/><path class="cls-8" d="M681.27,513.25c-11.82,2-16.08,5.69-23.69,3.69-5.7-1.5-5.11-4-10.31-4.91-8.45-1.44-11.18,5.16-20.14,4.91-6.78-.19-7.84-3.45-16.7-6.38-14.59-4.83-31.55-1.61-32.39,2.69-.33,1.69,1.62,4.53,12.24,9.59a39.49,39.49,0,0,1,18.18-.5c8.9,2,10.42,5.88,17.68,5.9,8.23,0,10.17-5,17.69-3.93,5.69.79,7.27,4,11.79,5.89,5.31,2.21,14.24,2.37,29.82-8.18l12.08-9.73A76.58,76.58,0,0,0,681.27,513.25Z"/><ellipse class="cls-5" cx="248.28" cy="477.71" rx="73.6" ry="51.62" transform="translate(-265.07 315.48) rotate(-45)"/><path class="cls-8" d="M190.16,514.89c22.05-4.57,30.38-12.95,33.8-20,3.08-6.36,1.34-9.78,5.61-15.82,7.28-10.27,17-6.24,26-15.82,6.94-7.34,2.69-11.24,10.71-24,2.15-3.41,12.94-20.54,23.48-18.38,1.63.34,6.28,1.76,10.21,10.21a57.89,57.89,0,0,0-19.39,18.38c-7.22,11.28-4.73,16.92-12.25,24.5-8.52,8.57-15.73,5.38-22.46,14.29-5.09,6.74-3.39,11.73-6.13,18.37-3.22,7.82-12.34,17.26-39.49,22.48Z"/><path class="cls-8" d="M236.12,528.4c9.77-6.94,15.39-7.35,19.36-14.13,3-5.09.76-6.47,3.82-10.77,4.95-7,11.55-4.25,17.71-10.77,4.66-4.93,3.1-8,7.3-16.33,6.89-13.72,21.17-23.44,24.8-21,1.43,1,2.06,4.35-1.88,15.44a39.4,39.4,0,0,0-13.2,12.5c-4.91,7.68-3.21,11.52-8.34,16.67-5.79,5.84-10.7,3.67-15.28,9.73-3.46,4.58-2.3,8-4.17,12.5-2.19,5.32-8.4,11.75-26.87,15.3L224,539.22A76.37,76.37,0,0,1,236.12,528.4Z"/><path class="cls-8" d="M197.36,491c6.95-9.77,7.35-15.4,14.14-19.36,5.09-3,6.46-.77,10.77-3.82,7-4.95,4.25-11.55,10.76-17.71,4.93-4.66,8-3.1,16.33-7.3,13.73-6.9,23.44-21.17,21-24.81-1-1.42-4.36-2.05-15.44,1.89a39.51,39.51,0,0,1-12.51,13.19c-7.67,4.91-11.51,3.22-16.67,8.34-5.84,5.8-3.66,10.71-9.73,15.28-4.58,3.47-8,2.31-12.5,4.17-5.32,2.2-11.74,8.4-15.3,26.88q-.83,7.71-1.66,15.42A76.21,76.21,0,0,0,197.36,491Z"/><ellipse class="cls-5" cx="670.64" cy="372.08" rx="51.62" ry="73.6" transform="translate(-66.67 583.19) rotate(-45)"/><path class="cls-8" d="M633.46,314c4.57,22.06,12.95,30.38,20,33.8,6.37,3.08,9.79,1.34,15.83,5.62,10.27,7.28,6.24,17,15.82,26,7.34,6.94,11.24,2.69,24,10.72,3.41,2.14,20.54,12.93,18.37,23.48-.33,1.63-1.75,6.28-10.21,10.2a57.94,57.94,0,0,0-18.37-19.39c-11.28-7.22-16.93-4.73-24.5-12.25-8.58-8.52-5.39-15.73-14.29-22.46-6.74-5.09-11.73-3.38-18.38-6.12-7.81-3.23-17.26-12.35-22.47-39.49Z"/><path class="cls-8" d="M619.94,359.91c6.95,9.77,7.35,15.39,14.14,19.36,5.09,3,6.46.77,10.77,3.82,7,5,4.25,11.55,10.77,17.71,4.92,4.66,8,3.1,16.32,7.3,13.73,6.9,23.44,21.17,21,24.81-1,1.42-4.36,2-15.44-1.89a39.6,39.6,0,0,0-12.5-13.2c-7.68-4.9-11.52-3.21-16.68-8.33-5.83-5.8-3.66-10.71-9.72-15.29-4.59-3.46-8-2.3-12.51-4.16-5.32-2.2-11.74-8.4-15.29-26.88q-.84-7.71-1.67-15.42A76.21,76.21,0,0,1,619.94,359.91Z"/><path class="cls-8" d="M657.35,321.15c9.77,7,15.39,7.36,19.36,14.14,3,5.09.77,6.47,3.82,10.77,5,7,11.55,4.25,17.71,10.77,4.66,4.93,3.1,8,7.3,16.32,6.89,13.73,21.17,23.45,24.8,21,1.43-1,2.06-4.35-1.88-15.44a39.5,39.5,0,0,1-13.2-12.5c-4.91-7.68-3.21-11.52-8.34-16.68-5.79-5.83-10.7-3.66-15.28-9.72-3.46-4.59-2.3-8-4.17-12.51-2.19-5.32-8.4-11.74-26.87-15.29l-15.42-1.67A76.21,76.21,0,0,0,657.35,321.15Z"/><path class="cls-6" d="M909.19,213.8,904,219"/><path class="cls-6" d="M921.19,201.79l-4.8,4.8"/><path class="cls-6" d="M909.19,207l-5.2-5.2"/><path class="cls-6" d="M921.19,219l-4.8-4.8"/><path class="cls-6" d="M1109,110.56l-5.2,5.2"/><path class="cls-6" d="M1121,98.56l-4.81,4.8"/><path class="cls-6" d="M1109,103.76l-5.2-5.2"/><path class="cls-6" d="M1121,115.76l-4.81-4.8"/><path class="cls-6" d="M1147.2,360l-5.2,5.2"/><path class="cls-6" d="M1159.2,348l-4.8,4.8"/><path class="cls-6" d="M1147.2,353.24,1142,348"/><path class="cls-6" d="M1159.2,365.24l-4.8-4.8"/><path class="cls-6" d="M567,90.49l-5.2,5.2"/><path class="cls-6" d="M579,78.49l-4.8,4.8"/><path class="cls-6" d="M567,83.69l-5.2-5.2"/><path class="cls-6" d="M579,95.69l-4.8-4.8"/><path class="cls-6" d="M164.57,13.06l-5.2,5.21"/><path class="cls-6" d="M176.57,1.06l-4.8,4.8"/><path class="cls-6" d="M164.57,6.26l-5.2-5.2"/><path class="cls-6" d="M176.57,18.27l-4.8-4.81"/><path class="cls-6" d="M759.12,221.44l-5.21,5.2"/><path class="cls-6" d="M771.12,209.44l-4.8,4.8"/><path class="cls-6" d="M759.12,214.64l-5.21-5.2"/><path class="cls-6" d="M771.12,226.64l-4.8-4.8"/><path class="cls-6" d="M855.24,121.5V133"/><path class="cls-6" d="M861,127.23H849.5"/><path class="cls-6" d="M657.37,29.74V41.21"/><path class="cls-6" d="M663.11,35.47H651.64"/><path class="cls-6" d="M166.06,315.54V327"/><path class="cls-6" d="M171.79,321.27H160.32"/><path class="cls-6" d="M560.83,203.7v11.47"/><path class="cls-6" d="M566.57,209.44H555.1"/><path class="cls-6" d="M226.28,46V57.46"/><path class="cls-6" d="M232,51.72H220.54"/><path class="cls-6" d="M805.53,141.57V153"/><path class="cls-6" d="M811.27,147.31H799.8"/><path class="cls-2" d="M150.59,542.14v0l13.35.05v0Z"/><path class="cls-2" d="M137.9,542.1l-8.16,0,8.16,0Z"/><path class="cls-2" d="M1123.07,544.85v0l8.15,0v0Z"/><path class="cls-2" d="M1091.33,544.79l22.72.06v0l-22.7-.08A.11.11,0,0,1,1091.33,544.79Z"/><path class="cls-2" d="M1082.26,544.7q-227.11-.84-454.49-1.22l454.51,1.29A.64.64,0,0,0,1082.26,544.7Z"/><path class="cls-2" d="M1143.92,544.94l12.41,0-12.41,0Z"/><path class="cls-2" d="M176.63,542.25q225.47.87,451.14,1.23l-451.14-1.27Z"/><rect class="cls-5" x="503.76" y="434.56" width="259.99" height="23.9"/><rect class="cls-5" x="303.03" y="426.91" width="119.48" height="23.9"/><rect class="cls-5" x="271.96" y="487.61" width="90.81" height="17.21" transform="translate(813.58 178.84) rotate(90)"/></g></g></svg>